<mxfile host="app.diagrams.net" modified="2020-12-21T15:53:41.772Z" agent="5.0 (Windows NT 10.0; Win64; x64) AppleWebKit/537.36 (KHTML, like Gecko) Chrome/87.0.4280.88 Safari/537.36 Edg/87.0.664.66" etag="WP_j9Y7B8KQ78lH72WWP" version="14.1.1" type="github">
  <diagram id="R2lEEEUBdFMjLlhIrx00" name="Page-1">
    <mxGraphModel dx="1422" dy="762" grid="1" gridSize="10" guides="1" tooltips="1" connect="1" arrows="1" fold="1" page="1" pageScale="1" pageWidth="827" pageHeight="1169" math="0" shadow="0" extFonts="Permanent Marker^https://fonts.googleapis.com/css?family=Permanent+Marker">
      <root>
        <mxCell id="0" />
        <mxCell id="1" parent="0" />
        <mxCell id="w6SyLkoHs6t1NlBvXJBp-1" value="Table" style="shape=table;startSize=30;container=1;collapsible=1;childLayout=tableLayout;fixedRows=1;rowLines=0;fontStyle=1;align=center;resizeLast=1;fillColor=#21C0A5;strokeColor=#006658;fontColor=#5C5C5C;" vertex="1" collapsed="1" parent="1">
          <mxGeometry y="10" width="60" height="30" as="geometry">
            <mxRectangle x="70" y="50" width="180" height="160" as="alternateBounds" />
          </mxGeometry>
        </mxCell>
        <mxCell id="w6SyLkoHs6t1NlBvXJBp-2" value="" style="shape=partialRectangle;collapsible=0;dropTarget=0;pointerEvents=0;fillColor=none;top=0;left=0;bottom=1;right=0;points=[[0,0.5],[1,0.5]];portConstraint=eastwest;strokeColor=#006658;fontColor=#5C5C5C;" vertex="1" parent="w6SyLkoHs6t1NlBvXJBp-1">
          <mxGeometry y="30" width="180" height="30" as="geometry" />
        </mxCell>
        <mxCell id="w6SyLkoHs6t1NlBvXJBp-3" value="PK" style="shape=partialRectangle;connectable=0;fillColor=none;top=0;left=0;bottom=0;right=0;fontStyle=1;overflow=hidden;strokeColor=#006658;fontColor=#5C5C5C;" vertex="1" parent="w6SyLkoHs6t1NlBvXJBp-2">
          <mxGeometry width="30" height="30" as="geometry" />
        </mxCell>
        <mxCell id="w6SyLkoHs6t1NlBvXJBp-4" value="ID" style="shape=partialRectangle;connectable=0;fillColor=none;top=0;left=0;bottom=0;right=0;align=left;spacingLeft=6;fontStyle=5;overflow=hidden;strokeColor=#006658;fontColor=#5C5C5C;" vertex="1" parent="w6SyLkoHs6t1NlBvXJBp-2">
          <mxGeometry x="30" width="150" height="30" as="geometry" />
        </mxCell>
        <mxCell id="w6SyLkoHs6t1NlBvXJBp-5" value="" style="shape=partialRectangle;collapsible=0;dropTarget=0;pointerEvents=0;fillColor=none;top=0;left=0;bottom=0;right=0;points=[[0,0.5],[1,0.5]];portConstraint=eastwest;strokeColor=#006658;fontColor=#5C5C5C;" vertex="1" parent="w6SyLkoHs6t1NlBvXJBp-1">
          <mxGeometry y="60" width="180" height="30" as="geometry" />
        </mxCell>
        <mxCell id="w6SyLkoHs6t1NlBvXJBp-6" value="" style="shape=partialRectangle;connectable=0;fillColor=none;top=0;left=0;bottom=0;right=0;editable=1;overflow=hidden;strokeColor=#006658;fontColor=#5C5C5C;" vertex="1" parent="w6SyLkoHs6t1NlBvXJBp-5">
          <mxGeometry width="30" height="30" as="geometry" />
        </mxCell>
        <mxCell id="w6SyLkoHs6t1NlBvXJBp-7" value="IsRemove" style="shape=partialRectangle;connectable=0;fillColor=none;top=0;left=0;bottom=0;right=0;align=left;spacingLeft=6;overflow=hidden;strokeColor=#006658;fontColor=#5C5C5C;" vertex="1" parent="w6SyLkoHs6t1NlBvXJBp-5">
          <mxGeometry x="30" width="150" height="30" as="geometry" />
        </mxCell>
        <mxCell id="w6SyLkoHs6t1NlBvXJBp-8" value="" style="shape=partialRectangle;collapsible=0;dropTarget=0;pointerEvents=0;fillColor=none;top=0;left=0;bottom=0;right=0;points=[[0,0.5],[1,0.5]];portConstraint=eastwest;strokeColor=#006658;fontColor=#5C5C5C;" vertex="1" parent="w6SyLkoHs6t1NlBvXJBp-1">
          <mxGeometry y="90" width="180" height="30" as="geometry" />
        </mxCell>
        <mxCell id="w6SyLkoHs6t1NlBvXJBp-9" value="" style="shape=partialRectangle;connectable=0;fillColor=none;top=0;left=0;bottom=0;right=0;editable=1;overflow=hidden;strokeColor=#006658;fontColor=#5C5C5C;" vertex="1" parent="w6SyLkoHs6t1NlBvXJBp-8">
          <mxGeometry width="30" height="30" as="geometry" />
        </mxCell>
        <mxCell id="w6SyLkoHs6t1NlBvXJBp-10" value="CreateTime" style="shape=partialRectangle;connectable=0;fillColor=none;top=0;left=0;bottom=0;right=0;align=left;spacingLeft=6;overflow=hidden;strokeColor=#006658;fontColor=#5C5C5C;" vertex="1" parent="w6SyLkoHs6t1NlBvXJBp-8">
          <mxGeometry x="30" width="150" height="30" as="geometry" />
        </mxCell>
        <mxCell id="w6SyLkoHs6t1NlBvXJBp-11" value="" style="shape=partialRectangle;collapsible=0;dropTarget=0;pointerEvents=0;fillColor=none;top=0;left=0;bottom=0;right=0;points=[[0,0.5],[1,0.5]];portConstraint=eastwest;strokeColor=#006658;fontColor=#5C5C5C;" vertex="1" parent="w6SyLkoHs6t1NlBvXJBp-1">
          <mxGeometry y="120" width="180" height="30" as="geometry" />
        </mxCell>
        <mxCell id="w6SyLkoHs6t1NlBvXJBp-12" value="" style="shape=partialRectangle;connectable=0;fillColor=none;top=0;left=0;bottom=0;right=0;editable=1;overflow=hidden;strokeColor=#006658;fontColor=#5C5C5C;" vertex="1" parent="w6SyLkoHs6t1NlBvXJBp-11">
          <mxGeometry width="30" height="30" as="geometry" />
        </mxCell>
        <mxCell id="w6SyLkoHs6t1NlBvXJBp-13" value="ModifyTime" style="shape=partialRectangle;connectable=0;fillColor=none;top=0;left=0;bottom=0;right=0;align=left;spacingLeft=6;overflow=hidden;strokeColor=#006658;fontColor=#5C5C5C;" vertex="1" parent="w6SyLkoHs6t1NlBvXJBp-11">
          <mxGeometry x="30" width="150" height="30" as="geometry" />
        </mxCell>
        <mxCell id="w6SyLkoHs6t1NlBvXJBp-20" value="UserIdentity" style="shape=table;startSize=30;container=1;collapsible=1;childLayout=tableLayout;fixedRows=1;rowLines=0;fontStyle=1;align=center;resizeLast=1;fillColor=#21C0A5;strokeColor=#006658;fontColor=#5C5C5C;" vertex="1" collapsed="1" parent="1">
          <mxGeometry x="70" y="60" width="100" height="30" as="geometry">
            <mxRectangle x="70" y="60" width="180" height="280" as="alternateBounds" />
          </mxGeometry>
        </mxCell>
        <mxCell id="w6SyLkoHs6t1NlBvXJBp-21" value="" style="shape=partialRectangle;collapsible=0;dropTarget=0;pointerEvents=0;fillColor=none;top=0;left=0;bottom=1;right=0;points=[[0,0.5],[1,0.5]];portConstraint=eastwest;strokeColor=#006658;fontColor=#5C5C5C;" vertex="1" parent="w6SyLkoHs6t1NlBvXJBp-20">
          <mxGeometry y="30" width="180" height="30" as="geometry" />
        </mxCell>
        <mxCell id="w6SyLkoHs6t1NlBvXJBp-22" value="PK" style="shape=partialRectangle;connectable=0;fillColor=none;top=0;left=0;bottom=0;right=0;fontStyle=1;overflow=hidden;strokeColor=#006658;fontColor=#5C5C5C;" vertex="1" parent="w6SyLkoHs6t1NlBvXJBp-21">
          <mxGeometry width="30" height="30" as="geometry" />
        </mxCell>
        <mxCell id="w6SyLkoHs6t1NlBvXJBp-23" value="Id" style="shape=partialRectangle;connectable=0;fillColor=none;top=0;left=0;bottom=0;right=0;align=left;spacingLeft=6;fontStyle=5;overflow=hidden;strokeColor=#006658;fontColor=#5C5C5C;" vertex="1" parent="w6SyLkoHs6t1NlBvXJBp-21">
          <mxGeometry x="30" width="150" height="30" as="geometry" />
        </mxCell>
        <mxCell id="w6SyLkoHs6t1NlBvXJBp-24" value="" style="shape=partialRectangle;collapsible=0;dropTarget=0;pointerEvents=0;fillColor=none;top=0;left=0;bottom=0;right=0;points=[[0,0.5],[1,0.5]];portConstraint=eastwest;strokeColor=#006658;fontColor=#5C5C5C;" vertex="1" parent="w6SyLkoHs6t1NlBvXJBp-20">
          <mxGeometry y="60" width="180" height="30" as="geometry" />
        </mxCell>
        <mxCell id="w6SyLkoHs6t1NlBvXJBp-25" value="" style="shape=partialRectangle;connectable=0;fillColor=none;top=0;left=0;bottom=0;right=0;editable=1;overflow=hidden;strokeColor=#006658;fontColor=#5C5C5C;" vertex="1" parent="w6SyLkoHs6t1NlBvXJBp-24">
          <mxGeometry width="30" height="30" as="geometry" />
        </mxCell>
        <mxCell id="w6SyLkoHs6t1NlBvXJBp-26" value="IsRemove" style="shape=partialRectangle;connectable=0;fillColor=none;top=0;left=0;bottom=0;right=0;align=left;spacingLeft=6;overflow=hidden;strokeColor=#006658;fontColor=#5C5C5C;" vertex="1" parent="w6SyLkoHs6t1NlBvXJBp-24">
          <mxGeometry x="30" width="150" height="30" as="geometry" />
        </mxCell>
        <mxCell id="w6SyLkoHs6t1NlBvXJBp-27" value="" style="shape=partialRectangle;collapsible=0;dropTarget=0;pointerEvents=0;fillColor=none;top=0;left=0;bottom=0;right=0;points=[[0,0.5],[1,0.5]];portConstraint=eastwest;strokeColor=#006658;fontColor=#5C5C5C;" vertex="1" parent="w6SyLkoHs6t1NlBvXJBp-20">
          <mxGeometry y="90" width="180" height="30" as="geometry" />
        </mxCell>
        <mxCell id="w6SyLkoHs6t1NlBvXJBp-28" value="" style="shape=partialRectangle;connectable=0;fillColor=none;top=0;left=0;bottom=0;right=0;editable=1;overflow=hidden;strokeColor=#006658;fontColor=#5C5C5C;" vertex="1" parent="w6SyLkoHs6t1NlBvXJBp-27">
          <mxGeometry width="30" height="30" as="geometry" />
        </mxCell>
        <mxCell id="w6SyLkoHs6t1NlBvXJBp-29" value="CreateTime" style="shape=partialRectangle;connectable=0;fillColor=none;top=0;left=0;bottom=0;right=0;align=left;spacingLeft=6;overflow=hidden;strokeColor=#006658;fontColor=#5C5C5C;" vertex="1" parent="w6SyLkoHs6t1NlBvXJBp-27">
          <mxGeometry x="30" width="150" height="30" as="geometry" />
        </mxCell>
        <mxCell id="w6SyLkoHs6t1NlBvXJBp-30" value="" style="shape=partialRectangle;collapsible=0;dropTarget=0;pointerEvents=0;fillColor=none;top=0;left=0;bottom=0;right=0;points=[[0,0.5],[1,0.5]];portConstraint=eastwest;strokeColor=#006658;fontColor=#5C5C5C;" vertex="1" parent="w6SyLkoHs6t1NlBvXJBp-20">
          <mxGeometry y="120" width="180" height="30" as="geometry" />
        </mxCell>
        <mxCell id="w6SyLkoHs6t1NlBvXJBp-31" value="" style="shape=partialRectangle;connectable=0;fillColor=none;top=0;left=0;bottom=0;right=0;editable=1;overflow=hidden;strokeColor=#006658;fontColor=#5C5C5C;" vertex="1" parent="w6SyLkoHs6t1NlBvXJBp-30">
          <mxGeometry width="30" height="30" as="geometry" />
        </mxCell>
        <mxCell id="w6SyLkoHs6t1NlBvXJBp-32" value="ModifyTime" style="shape=partialRectangle;connectable=0;fillColor=none;top=0;left=0;bottom=0;right=0;align=left;spacingLeft=6;overflow=hidden;strokeColor=#006658;fontColor=#5C5C5C;" vertex="1" parent="w6SyLkoHs6t1NlBvXJBp-30">
          <mxGeometry x="30" width="150" height="30" as="geometry" />
        </mxCell>
        <mxCell id="w6SyLkoHs6t1NlBvXJBp-37" value="" style="shape=partialRectangle;collapsible=0;dropTarget=0;pointerEvents=0;fillColor=none;top=0;left=0;bottom=0;right=0;points=[[0,0.5],[1,0.5]];portConstraint=eastwest;rounded=0;sketch=0;strokeColor=#006658;fontColor=#5C5C5C;" vertex="1" parent="w6SyLkoHs6t1NlBvXJBp-20">
          <mxGeometry y="150" width="180" height="30" as="geometry" />
        </mxCell>
        <mxCell id="w6SyLkoHs6t1NlBvXJBp-38" value="" style="shape=partialRectangle;connectable=0;fillColor=none;top=0;left=0;bottom=0;right=0;editable=1;overflow=hidden;" vertex="1" parent="w6SyLkoHs6t1NlBvXJBp-37">
          <mxGeometry width="30" height="30" as="geometry" />
        </mxCell>
        <mxCell id="w6SyLkoHs6t1NlBvXJBp-39" value="IdentityType" style="shape=partialRectangle;connectable=0;fillColor=none;top=0;left=0;bottom=0;right=0;align=left;spacingLeft=6;overflow=hidden;" vertex="1" parent="w6SyLkoHs6t1NlBvXJBp-37">
          <mxGeometry x="30" width="150" height="30" as="geometry" />
        </mxCell>
        <mxCell id="w6SyLkoHs6t1NlBvXJBp-40" value="" style="shape=partialRectangle;collapsible=0;dropTarget=0;pointerEvents=0;fillColor=none;top=0;left=0;bottom=0;right=0;points=[[0,0.5],[1,0.5]];portConstraint=eastwest;rounded=0;sketch=0;strokeColor=#006658;fontColor=#5C5C5C;" vertex="1" parent="w6SyLkoHs6t1NlBvXJBp-20">
          <mxGeometry y="180" width="180" height="30" as="geometry" />
        </mxCell>
        <mxCell id="w6SyLkoHs6t1NlBvXJBp-41" value="" style="shape=partialRectangle;connectable=0;fillColor=none;top=0;left=0;bottom=0;right=0;editable=1;overflow=hidden;" vertex="1" parent="w6SyLkoHs6t1NlBvXJBp-40">
          <mxGeometry width="30" height="30" as="geometry" />
        </mxCell>
        <mxCell id="w6SyLkoHs6t1NlBvXJBp-42" value="Identifier" style="shape=partialRectangle;connectable=0;fillColor=none;top=0;left=0;bottom=0;right=0;align=left;spacingLeft=6;overflow=hidden;" vertex="1" parent="w6SyLkoHs6t1NlBvXJBp-40">
          <mxGeometry x="30" width="150" height="30" as="geometry" />
        </mxCell>
        <mxCell id="w6SyLkoHs6t1NlBvXJBp-43" value="" style="shape=partialRectangle;collapsible=0;dropTarget=0;pointerEvents=0;fillColor=none;top=0;left=0;bottom=0;right=0;points=[[0,0.5],[1,0.5]];portConstraint=eastwest;rounded=0;sketch=0;strokeColor=#006658;fontColor=#5C5C5C;" vertex="1" parent="w6SyLkoHs6t1NlBvXJBp-20">
          <mxGeometry y="210" width="180" height="30" as="geometry" />
        </mxCell>
        <mxCell id="w6SyLkoHs6t1NlBvXJBp-44" value="" style="shape=partialRectangle;connectable=0;fillColor=none;top=0;left=0;bottom=0;right=0;editable=1;overflow=hidden;" vertex="1" parent="w6SyLkoHs6t1NlBvXJBp-43">
          <mxGeometry width="30" height="30" as="geometry" />
        </mxCell>
        <mxCell id="w6SyLkoHs6t1NlBvXJBp-45" value="Credential" style="shape=partialRectangle;connectable=0;fillColor=none;top=0;left=0;bottom=0;right=0;align=left;spacingLeft=6;overflow=hidden;" vertex="1" parent="w6SyLkoHs6t1NlBvXJBp-43">
          <mxGeometry x="30" width="150" height="30" as="geometry" />
        </mxCell>
        <mxCell id="w6SyLkoHs6t1NlBvXJBp-46" value="" style="shape=partialRectangle;collapsible=0;dropTarget=0;pointerEvents=0;fillColor=none;top=0;left=0;bottom=0;right=0;points=[[0,0.5],[1,0.5]];portConstraint=eastwest;rounded=0;sketch=0;strokeColor=#006658;fontColor=#5C5C5C;" vertex="1" parent="w6SyLkoHs6t1NlBvXJBp-20">
          <mxGeometry y="240" width="180" height="30" as="geometry" />
        </mxCell>
        <mxCell id="w6SyLkoHs6t1NlBvXJBp-47" value="FK" style="shape=partialRectangle;connectable=0;fillColor=none;top=0;left=0;bottom=0;right=0;fontStyle=0;overflow=hidden;" vertex="1" parent="w6SyLkoHs6t1NlBvXJBp-46">
          <mxGeometry width="30" height="30" as="geometry" />
        </mxCell>
        <mxCell id="w6SyLkoHs6t1NlBvXJBp-48" value="UserId" style="shape=partialRectangle;connectable=0;fillColor=none;top=0;left=0;bottom=0;right=0;align=left;spacingLeft=6;fontStyle=0;overflow=hidden;" vertex="1" parent="w6SyLkoHs6t1NlBvXJBp-46">
          <mxGeometry x="30" width="150" height="30" as="geometry" />
        </mxCell>
        <mxCell id="w6SyLkoHs6t1NlBvXJBp-49" value="User" style="shape=table;startSize=30;container=1;collapsible=1;childLayout=tableLayout;fixedRows=1;rowLines=0;fontStyle=1;align=center;resizeLast=1;fillColor=#21C0A5;strokeColor=#006658;fontColor=#5C5C5C;" vertex="1" collapsed="1" parent="1">
          <mxGeometry x="414" y="60" width="60" height="30" as="geometry">
            <mxRectangle x="414" y="60" width="180" height="280" as="alternateBounds" />
          </mxGeometry>
        </mxCell>
        <mxCell id="w6SyLkoHs6t1NlBvXJBp-50" value="" style="shape=partialRectangle;collapsible=0;dropTarget=0;pointerEvents=0;fillColor=none;top=0;left=0;bottom=1;right=0;points=[[0,0.5],[1,0.5]];portConstraint=eastwest;strokeColor=#006658;fontColor=#5C5C5C;" vertex="1" parent="w6SyLkoHs6t1NlBvXJBp-49">
          <mxGeometry y="30" width="180" height="30" as="geometry" />
        </mxCell>
        <mxCell id="w6SyLkoHs6t1NlBvXJBp-51" value="PK" style="shape=partialRectangle;connectable=0;fillColor=none;top=0;left=0;bottom=0;right=0;fontStyle=1;overflow=hidden;strokeColor=#006658;fontColor=#5C5C5C;" vertex="1" parent="w6SyLkoHs6t1NlBvXJBp-50">
          <mxGeometry width="30" height="30" as="geometry" />
        </mxCell>
        <mxCell id="w6SyLkoHs6t1NlBvXJBp-52" value="ID" style="shape=partialRectangle;connectable=0;fillColor=none;top=0;left=0;bottom=0;right=0;align=left;spacingLeft=6;fontStyle=5;overflow=hidden;strokeColor=#006658;fontColor=#5C5C5C;" vertex="1" parent="w6SyLkoHs6t1NlBvXJBp-50">
          <mxGeometry x="30" width="150" height="30" as="geometry" />
        </mxCell>
        <mxCell id="w6SyLkoHs6t1NlBvXJBp-53" value="" style="shape=partialRectangle;collapsible=0;dropTarget=0;pointerEvents=0;fillColor=none;top=0;left=0;bottom=0;right=0;points=[[0,0.5],[1,0.5]];portConstraint=eastwest;strokeColor=#006658;fontColor=#5C5C5C;" vertex="1" parent="w6SyLkoHs6t1NlBvXJBp-49">
          <mxGeometry y="60" width="180" height="30" as="geometry" />
        </mxCell>
        <mxCell id="w6SyLkoHs6t1NlBvXJBp-54" value="" style="shape=partialRectangle;connectable=0;fillColor=none;top=0;left=0;bottom=0;right=0;editable=1;overflow=hidden;strokeColor=#006658;fontColor=#5C5C5C;" vertex="1" parent="w6SyLkoHs6t1NlBvXJBp-53">
          <mxGeometry width="30" height="30" as="geometry" />
        </mxCell>
        <mxCell id="w6SyLkoHs6t1NlBvXJBp-55" value="IsRemove" style="shape=partialRectangle;connectable=0;fillColor=none;top=0;left=0;bottom=0;right=0;align=left;spacingLeft=6;overflow=hidden;strokeColor=#006658;fontColor=#5C5C5C;" vertex="1" parent="w6SyLkoHs6t1NlBvXJBp-53">
          <mxGeometry x="30" width="150" height="30" as="geometry" />
        </mxCell>
        <mxCell id="w6SyLkoHs6t1NlBvXJBp-56" value="" style="shape=partialRectangle;collapsible=0;dropTarget=0;pointerEvents=0;fillColor=none;top=0;left=0;bottom=0;right=0;points=[[0,0.5],[1,0.5]];portConstraint=eastwest;strokeColor=#006658;fontColor=#5C5C5C;" vertex="1" parent="w6SyLkoHs6t1NlBvXJBp-49">
          <mxGeometry y="90" width="180" height="30" as="geometry" />
        </mxCell>
        <mxCell id="w6SyLkoHs6t1NlBvXJBp-57" value="" style="shape=partialRectangle;connectable=0;fillColor=none;top=0;left=0;bottom=0;right=0;editable=1;overflow=hidden;strokeColor=#006658;fontColor=#5C5C5C;" vertex="1" parent="w6SyLkoHs6t1NlBvXJBp-56">
          <mxGeometry width="30" height="30" as="geometry" />
        </mxCell>
        <mxCell id="w6SyLkoHs6t1NlBvXJBp-58" value="CreateTime" style="shape=partialRectangle;connectable=0;fillColor=none;top=0;left=0;bottom=0;right=0;align=left;spacingLeft=6;overflow=hidden;strokeColor=#006658;fontColor=#5C5C5C;" vertex="1" parent="w6SyLkoHs6t1NlBvXJBp-56">
          <mxGeometry x="30" width="150" height="30" as="geometry" />
        </mxCell>
        <mxCell id="w6SyLkoHs6t1NlBvXJBp-59" value="" style="shape=partialRectangle;collapsible=0;dropTarget=0;pointerEvents=0;fillColor=none;top=0;left=0;bottom=0;right=0;points=[[0,0.5],[1,0.5]];portConstraint=eastwest;strokeColor=#006658;fontColor=#5C5C5C;" vertex="1" parent="w6SyLkoHs6t1NlBvXJBp-49">
          <mxGeometry y="120" width="180" height="30" as="geometry" />
        </mxCell>
        <mxCell id="w6SyLkoHs6t1NlBvXJBp-60" value="" style="shape=partialRectangle;connectable=0;fillColor=none;top=0;left=0;bottom=0;right=0;editable=1;overflow=hidden;strokeColor=#006658;fontColor=#5C5C5C;" vertex="1" parent="w6SyLkoHs6t1NlBvXJBp-59">
          <mxGeometry width="30" height="30" as="geometry" />
        </mxCell>
        <mxCell id="w6SyLkoHs6t1NlBvXJBp-61" value="ModifyTime" style="shape=partialRectangle;connectable=0;fillColor=none;top=0;left=0;bottom=0;right=0;align=left;spacingLeft=6;overflow=hidden;strokeColor=#006658;fontColor=#5C5C5C;" vertex="1" parent="w6SyLkoHs6t1NlBvXJBp-59">
          <mxGeometry x="30" width="150" height="30" as="geometry" />
        </mxCell>
        <mxCell id="w6SyLkoHs6t1NlBvXJBp-62" value="" style="shape=partialRectangle;collapsible=0;dropTarget=0;pointerEvents=0;fillColor=none;top=0;left=0;bottom=0;right=0;points=[[0,0.5],[1,0.5]];portConstraint=eastwest;rounded=0;sketch=0;strokeColor=#006658;fontColor=#5C5C5C;" vertex="1" parent="w6SyLkoHs6t1NlBvXJBp-49">
          <mxGeometry y="150" width="180" height="30" as="geometry" />
        </mxCell>
        <mxCell id="w6SyLkoHs6t1NlBvXJBp-63" value="" style="shape=partialRectangle;connectable=0;fillColor=none;top=0;left=0;bottom=0;right=0;editable=1;overflow=hidden;" vertex="1" parent="w6SyLkoHs6t1NlBvXJBp-62">
          <mxGeometry width="30" height="30" as="geometry" />
        </mxCell>
        <mxCell id="w6SyLkoHs6t1NlBvXJBp-64" value="PhoneNumber" style="shape=partialRectangle;connectable=0;fillColor=none;top=0;left=0;bottom=0;right=0;align=left;spacingLeft=6;overflow=hidden;" vertex="1" parent="w6SyLkoHs6t1NlBvXJBp-62">
          <mxGeometry x="30" width="150" height="30" as="geometry" />
        </mxCell>
        <mxCell id="w6SyLkoHs6t1NlBvXJBp-65" value="" style="shape=partialRectangle;collapsible=0;dropTarget=0;pointerEvents=0;fillColor=none;top=0;left=0;bottom=0;right=0;points=[[0,0.5],[1,0.5]];portConstraint=eastwest;rounded=0;sketch=0;strokeColor=#006658;fontColor=#5C5C5C;" vertex="1" parent="w6SyLkoHs6t1NlBvXJBp-49">
          <mxGeometry y="180" width="180" height="30" as="geometry" />
        </mxCell>
        <mxCell id="w6SyLkoHs6t1NlBvXJBp-66" value="" style="shape=partialRectangle;connectable=0;fillColor=none;top=0;left=0;bottom=0;right=0;editable=1;overflow=hidden;" vertex="1" parent="w6SyLkoHs6t1NlBvXJBp-65">
          <mxGeometry width="30" height="30" as="geometry" />
        </mxCell>
        <mxCell id="w6SyLkoHs6t1NlBvXJBp-67" value="Email" style="shape=partialRectangle;connectable=0;fillColor=none;top=0;left=0;bottom=0;right=0;align=left;spacingLeft=6;overflow=hidden;" vertex="1" parent="w6SyLkoHs6t1NlBvXJBp-65">
          <mxGeometry x="30" width="150" height="30" as="geometry" />
        </mxCell>
        <mxCell id="w6SyLkoHs6t1NlBvXJBp-68" value="" style="shape=partialRectangle;collapsible=0;dropTarget=0;pointerEvents=0;fillColor=none;top=0;left=0;bottom=0;right=0;points=[[0,0.5],[1,0.5]];portConstraint=eastwest;rounded=0;sketch=0;strokeColor=#006658;fontColor=#5C5C5C;" vertex="1" parent="w6SyLkoHs6t1NlBvXJBp-49">
          <mxGeometry y="210" width="180" height="30" as="geometry" />
        </mxCell>
        <mxCell id="w6SyLkoHs6t1NlBvXJBp-69" value="" style="shape=partialRectangle;connectable=0;fillColor=none;top=0;left=0;bottom=0;right=0;editable=1;overflow=hidden;" vertex="1" parent="w6SyLkoHs6t1NlBvXJBp-68">
          <mxGeometry width="30" height="30" as="geometry" />
        </mxCell>
        <mxCell id="w6SyLkoHs6t1NlBvXJBp-70" value="Nickname" style="shape=partialRectangle;connectable=0;fillColor=none;top=0;left=0;bottom=0;right=0;align=left;spacingLeft=6;overflow=hidden;" vertex="1" parent="w6SyLkoHs6t1NlBvXJBp-68">
          <mxGeometry x="30" width="150" height="30" as="geometry" />
        </mxCell>
        <mxCell id="w6SyLkoHs6t1NlBvXJBp-71" value="" style="shape=partialRectangle;collapsible=0;dropTarget=0;pointerEvents=0;fillColor=none;top=0;left=0;bottom=0;right=0;points=[[0,0.5],[1,0.5]];portConstraint=eastwest;rounded=0;sketch=0;strokeColor=#006658;fontColor=#5C5C5C;" vertex="1" parent="w6SyLkoHs6t1NlBvXJBp-49">
          <mxGeometry y="240" width="180" height="30" as="geometry" />
        </mxCell>
        <mxCell id="w6SyLkoHs6t1NlBvXJBp-72" value="" style="shape=partialRectangle;connectable=0;fillColor=none;top=0;left=0;bottom=0;right=0;editable=1;overflow=hidden;" vertex="1" parent="w6SyLkoHs6t1NlBvXJBp-71">
          <mxGeometry width="30" height="30" as="geometry" />
        </mxCell>
        <mxCell id="w6SyLkoHs6t1NlBvXJBp-73" value="Avatar" style="shape=partialRectangle;connectable=0;fillColor=none;top=0;left=0;bottom=0;right=0;align=left;spacingLeft=6;overflow=hidden;" vertex="1" parent="w6SyLkoHs6t1NlBvXJBp-71">
          <mxGeometry x="30" width="150" height="30" as="geometry" />
        </mxCell>
        <mxCell id="w6SyLkoHs6t1NlBvXJBp-74" value="Comment" style="shape=table;startSize=30;container=1;collapsible=1;childLayout=tableLayout;fixedRows=1;rowLines=0;fontStyle=1;align=center;resizeLast=1;fillColor=#21C0A5;strokeColor=#006658;fontColor=#5C5C5C;" vertex="1" collapsed="1" parent="1">
          <mxGeometry x="90" y="380" width="60" height="30" as="geometry">
            <mxRectangle x="90" y="380" width="180" height="160" as="alternateBounds" />
          </mxGeometry>
        </mxCell>
        <mxCell id="w6SyLkoHs6t1NlBvXJBp-75" value="" style="shape=partialRectangle;collapsible=0;dropTarget=0;pointerEvents=0;fillColor=none;top=0;left=0;bottom=1;right=0;points=[[0,0.5],[1,0.5]];portConstraint=eastwest;strokeColor=#006658;fontColor=#5C5C5C;" vertex="1" parent="w6SyLkoHs6t1NlBvXJBp-74">
          <mxGeometry y="30" width="180" height="30" as="geometry" />
        </mxCell>
        <mxCell id="w6SyLkoHs6t1NlBvXJBp-76" value="PK" style="shape=partialRectangle;connectable=0;fillColor=none;top=0;left=0;bottom=0;right=0;fontStyle=1;overflow=hidden;strokeColor=#006658;fontColor=#5C5C5C;" vertex="1" parent="w6SyLkoHs6t1NlBvXJBp-75">
          <mxGeometry width="30" height="30" as="geometry" />
        </mxCell>
        <mxCell id="w6SyLkoHs6t1NlBvXJBp-77" value="ID" style="shape=partialRectangle;connectable=0;fillColor=none;top=0;left=0;bottom=0;right=0;align=left;spacingLeft=6;fontStyle=5;overflow=hidden;strokeColor=#006658;fontColor=#5C5C5C;" vertex="1" parent="w6SyLkoHs6t1NlBvXJBp-75">
          <mxGeometry x="30" width="150" height="30" as="geometry" />
        </mxCell>
        <mxCell id="w6SyLkoHs6t1NlBvXJBp-78" value="" style="shape=partialRectangle;collapsible=0;dropTarget=0;pointerEvents=0;fillColor=none;top=0;left=0;bottom=0;right=0;points=[[0,0.5],[1,0.5]];portConstraint=eastwest;strokeColor=#006658;fontColor=#5C5C5C;" vertex="1" parent="w6SyLkoHs6t1NlBvXJBp-74">
          <mxGeometry y="60" width="180" height="30" as="geometry" />
        </mxCell>
        <mxCell id="w6SyLkoHs6t1NlBvXJBp-79" value="" style="shape=partialRectangle;connectable=0;fillColor=none;top=0;left=0;bottom=0;right=0;editable=1;overflow=hidden;strokeColor=#006658;fontColor=#5C5C5C;" vertex="1" parent="w6SyLkoHs6t1NlBvXJBp-78">
          <mxGeometry width="30" height="30" as="geometry" />
        </mxCell>
        <mxCell id="w6SyLkoHs6t1NlBvXJBp-80" value="IsRemove" style="shape=partialRectangle;connectable=0;fillColor=none;top=0;left=0;bottom=0;right=0;align=left;spacingLeft=6;overflow=hidden;strokeColor=#006658;fontColor=#5C5C5C;" vertex="1" parent="w6SyLkoHs6t1NlBvXJBp-78">
          <mxGeometry x="30" width="150" height="30" as="geometry" />
        </mxCell>
        <mxCell id="w6SyLkoHs6t1NlBvXJBp-81" value="" style="shape=partialRectangle;collapsible=0;dropTarget=0;pointerEvents=0;fillColor=none;top=0;left=0;bottom=0;right=0;points=[[0,0.5],[1,0.5]];portConstraint=eastwest;strokeColor=#006658;fontColor=#5C5C5C;" vertex="1" parent="w6SyLkoHs6t1NlBvXJBp-74">
          <mxGeometry y="90" width="180" height="30" as="geometry" />
        </mxCell>
        <mxCell id="w6SyLkoHs6t1NlBvXJBp-82" value="" style="shape=partialRectangle;connectable=0;fillColor=none;top=0;left=0;bottom=0;right=0;editable=1;overflow=hidden;strokeColor=#006658;fontColor=#5C5C5C;" vertex="1" parent="w6SyLkoHs6t1NlBvXJBp-81">
          <mxGeometry width="30" height="30" as="geometry" />
        </mxCell>
        <mxCell id="w6SyLkoHs6t1NlBvXJBp-83" value="CreateTime" style="shape=partialRectangle;connectable=0;fillColor=none;top=0;left=0;bottom=0;right=0;align=left;spacingLeft=6;overflow=hidden;strokeColor=#006658;fontColor=#5C5C5C;" vertex="1" parent="w6SyLkoHs6t1NlBvXJBp-81">
          <mxGeometry x="30" width="150" height="30" as="geometry" />
        </mxCell>
        <mxCell id="w6SyLkoHs6t1NlBvXJBp-84" value="" style="shape=partialRectangle;collapsible=0;dropTarget=0;pointerEvents=0;fillColor=none;top=0;left=0;bottom=0;right=0;points=[[0,0.5],[1,0.5]];portConstraint=eastwest;strokeColor=#006658;fontColor=#5C5C5C;" vertex="1" parent="w6SyLkoHs6t1NlBvXJBp-74">
          <mxGeometry y="120" width="180" height="30" as="geometry" />
        </mxCell>
        <mxCell id="w6SyLkoHs6t1NlBvXJBp-85" value="" style="shape=partialRectangle;connectable=0;fillColor=none;top=0;left=0;bottom=0;right=0;editable=1;overflow=hidden;strokeColor=#006658;fontColor=#5C5C5C;" vertex="1" parent="w6SyLkoHs6t1NlBvXJBp-84">
          <mxGeometry width="30" height="30" as="geometry" />
        </mxCell>
        <mxCell id="w6SyLkoHs6t1NlBvXJBp-86" value="ModifyTime" style="shape=partialRectangle;connectable=0;fillColor=none;top=0;left=0;bottom=0;right=0;align=left;spacingLeft=6;overflow=hidden;strokeColor=#006658;fontColor=#5C5C5C;" vertex="1" parent="w6SyLkoHs6t1NlBvXJBp-84">
          <mxGeometry x="30" width="150" height="30" as="geometry" />
        </mxCell>
        <mxCell id="w6SyLkoHs6t1NlBvXJBp-87" value="Shop" style="shape=table;startSize=30;container=1;collapsible=1;childLayout=tableLayout;fixedRows=1;rowLines=0;fontStyle=1;align=center;resizeLast=1;fillColor=#21C0A5;strokeColor=#006658;fontColor=#5C5C5C;" vertex="1" collapsed="1" parent="1">
          <mxGeometry x="384" y="390" width="60" height="30" as="geometry">
            <mxRectangle x="90" y="380" width="180" height="160" as="alternateBounds" />
          </mxGeometry>
        </mxCell>
        <mxCell id="w6SyLkoHs6t1NlBvXJBp-88" value="" style="shape=partialRectangle;collapsible=0;dropTarget=0;pointerEvents=0;fillColor=none;top=0;left=0;bottom=1;right=0;points=[[0,0.5],[1,0.5]];portConstraint=eastwest;strokeColor=#006658;fontColor=#5C5C5C;" vertex="1" parent="w6SyLkoHs6t1NlBvXJBp-87">
          <mxGeometry y="30" width="180" height="30" as="geometry" />
        </mxCell>
        <mxCell id="w6SyLkoHs6t1NlBvXJBp-89" value="PK" style="shape=partialRectangle;connectable=0;fillColor=none;top=0;left=0;bottom=0;right=0;fontStyle=1;overflow=hidden;strokeColor=#006658;fontColor=#5C5C5C;" vertex="1" parent="w6SyLkoHs6t1NlBvXJBp-88">
          <mxGeometry width="30" height="30" as="geometry" />
        </mxCell>
        <mxCell id="w6SyLkoHs6t1NlBvXJBp-90" value="ID" style="shape=partialRectangle;connectable=0;fillColor=none;top=0;left=0;bottom=0;right=0;align=left;spacingLeft=6;fontStyle=5;overflow=hidden;strokeColor=#006658;fontColor=#5C5C5C;" vertex="1" parent="w6SyLkoHs6t1NlBvXJBp-88">
          <mxGeometry x="30" width="150" height="30" as="geometry" />
        </mxCell>
        <mxCell id="w6SyLkoHs6t1NlBvXJBp-91" value="" style="shape=partialRectangle;collapsible=0;dropTarget=0;pointerEvents=0;fillColor=none;top=0;left=0;bottom=0;right=0;points=[[0,0.5],[1,0.5]];portConstraint=eastwest;strokeColor=#006658;fontColor=#5C5C5C;" vertex="1" parent="w6SyLkoHs6t1NlBvXJBp-87">
          <mxGeometry y="60" width="180" height="30" as="geometry" />
        </mxCell>
        <mxCell id="w6SyLkoHs6t1NlBvXJBp-92" value="" style="shape=partialRectangle;connectable=0;fillColor=none;top=0;left=0;bottom=0;right=0;editable=1;overflow=hidden;strokeColor=#006658;fontColor=#5C5C5C;" vertex="1" parent="w6SyLkoHs6t1NlBvXJBp-91">
          <mxGeometry width="30" height="30" as="geometry" />
        </mxCell>
        <mxCell id="w6SyLkoHs6t1NlBvXJBp-93" value="IsRemove" style="shape=partialRectangle;connectable=0;fillColor=none;top=0;left=0;bottom=0;right=0;align=left;spacingLeft=6;overflow=hidden;strokeColor=#006658;fontColor=#5C5C5C;" vertex="1" parent="w6SyLkoHs6t1NlBvXJBp-91">
          <mxGeometry x="30" width="150" height="30" as="geometry" />
        </mxCell>
        <mxCell id="w6SyLkoHs6t1NlBvXJBp-94" value="" style="shape=partialRectangle;collapsible=0;dropTarget=0;pointerEvents=0;fillColor=none;top=0;left=0;bottom=0;right=0;points=[[0,0.5],[1,0.5]];portConstraint=eastwest;strokeColor=#006658;fontColor=#5C5C5C;" vertex="1" parent="w6SyLkoHs6t1NlBvXJBp-87">
          <mxGeometry y="90" width="180" height="30" as="geometry" />
        </mxCell>
        <mxCell id="w6SyLkoHs6t1NlBvXJBp-95" value="" style="shape=partialRectangle;connectable=0;fillColor=none;top=0;left=0;bottom=0;right=0;editable=1;overflow=hidden;strokeColor=#006658;fontColor=#5C5C5C;" vertex="1" parent="w6SyLkoHs6t1NlBvXJBp-94">
          <mxGeometry width="30" height="30" as="geometry" />
        </mxCell>
        <mxCell id="w6SyLkoHs6t1NlBvXJBp-96" value="CreateTime" style="shape=partialRectangle;connectable=0;fillColor=none;top=0;left=0;bottom=0;right=0;align=left;spacingLeft=6;overflow=hidden;strokeColor=#006658;fontColor=#5C5C5C;" vertex="1" parent="w6SyLkoHs6t1NlBvXJBp-94">
          <mxGeometry x="30" width="150" height="30" as="geometry" />
        </mxCell>
        <mxCell id="w6SyLkoHs6t1NlBvXJBp-97" value="" style="shape=partialRectangle;collapsible=0;dropTarget=0;pointerEvents=0;fillColor=none;top=0;left=0;bottom=0;right=0;points=[[0,0.5],[1,0.5]];portConstraint=eastwest;strokeColor=#006658;fontColor=#5C5C5C;" vertex="1" parent="w6SyLkoHs6t1NlBvXJBp-87">
          <mxGeometry y="120" width="180" height="30" as="geometry" />
        </mxCell>
        <mxCell id="w6SyLkoHs6t1NlBvXJBp-98" value="" style="shape=partialRectangle;connectable=0;fillColor=none;top=0;left=0;bottom=0;right=0;editable=1;overflow=hidden;strokeColor=#006658;fontColor=#5C5C5C;" vertex="1" parent="w6SyLkoHs6t1NlBvXJBp-97">
          <mxGeometry width="30" height="30" as="geometry" />
        </mxCell>
        <mxCell id="w6SyLkoHs6t1NlBvXJBp-99" value="ModifyTime" style="shape=partialRectangle;connectable=0;fillColor=none;top=0;left=0;bottom=0;right=0;align=left;spacingLeft=6;overflow=hidden;strokeColor=#006658;fontColor=#5C5C5C;" vertex="1" parent="w6SyLkoHs6t1NlBvXJBp-97">
          <mxGeometry x="30" width="150" height="30" as="geometry" />
        </mxCell>
        <mxCell id="w6SyLkoHs6t1NlBvXJBp-100" value="Price" style="shape=table;startSize=30;container=1;collapsible=1;childLayout=tableLayout;fixedRows=1;rowLines=0;fontStyle=1;align=center;resizeLast=1;fillColor=#21C0A5;strokeColor=#006658;fontColor=#5C5C5C;" vertex="1" collapsed="1" parent="1">
          <mxGeometry x="370" y="470" width="60" height="30" as="geometry">
            <mxRectangle x="90" y="380" width="180" height="160" as="alternateBounds" />
          </mxGeometry>
        </mxCell>
        <mxCell id="w6SyLkoHs6t1NlBvXJBp-101" value="" style="shape=partialRectangle;collapsible=0;dropTarget=0;pointerEvents=0;fillColor=none;top=0;left=0;bottom=1;right=0;points=[[0,0.5],[1,0.5]];portConstraint=eastwest;strokeColor=#006658;fontColor=#5C5C5C;" vertex="1" parent="w6SyLkoHs6t1NlBvXJBp-100">
          <mxGeometry y="30" width="180" height="30" as="geometry" />
        </mxCell>
        <mxCell id="w6SyLkoHs6t1NlBvXJBp-102" value="PK" style="shape=partialRectangle;connectable=0;fillColor=none;top=0;left=0;bottom=0;right=0;fontStyle=1;overflow=hidden;strokeColor=#006658;fontColor=#5C5C5C;" vertex="1" parent="w6SyLkoHs6t1NlBvXJBp-101">
          <mxGeometry width="30" height="30" as="geometry" />
        </mxCell>
        <mxCell id="w6SyLkoHs6t1NlBvXJBp-103" value="ID" style="shape=partialRectangle;connectable=0;fillColor=none;top=0;left=0;bottom=0;right=0;align=left;spacingLeft=6;fontStyle=5;overflow=hidden;strokeColor=#006658;fontColor=#5C5C5C;" vertex="1" parent="w6SyLkoHs6t1NlBvXJBp-101">
          <mxGeometry x="30" width="150" height="30" as="geometry" />
        </mxCell>
        <mxCell id="w6SyLkoHs6t1NlBvXJBp-104" value="" style="shape=partialRectangle;collapsible=0;dropTarget=0;pointerEvents=0;fillColor=none;top=0;left=0;bottom=0;right=0;points=[[0,0.5],[1,0.5]];portConstraint=eastwest;strokeColor=#006658;fontColor=#5C5C5C;" vertex="1" parent="w6SyLkoHs6t1NlBvXJBp-100">
          <mxGeometry y="60" width="180" height="30" as="geometry" />
        </mxCell>
        <mxCell id="w6SyLkoHs6t1NlBvXJBp-105" value="" style="shape=partialRectangle;connectable=0;fillColor=none;top=0;left=0;bottom=0;right=0;editable=1;overflow=hidden;strokeColor=#006658;fontColor=#5C5C5C;" vertex="1" parent="w6SyLkoHs6t1NlBvXJBp-104">
          <mxGeometry width="30" height="30" as="geometry" />
        </mxCell>
        <mxCell id="w6SyLkoHs6t1NlBvXJBp-106" value="IsRemove" style="shape=partialRectangle;connectable=0;fillColor=none;top=0;left=0;bottom=0;right=0;align=left;spacingLeft=6;overflow=hidden;strokeColor=#006658;fontColor=#5C5C5C;" vertex="1" parent="w6SyLkoHs6t1NlBvXJBp-104">
          <mxGeometry x="30" width="150" height="30" as="geometry" />
        </mxCell>
        <mxCell id="w6SyLkoHs6t1NlBvXJBp-107" value="" style="shape=partialRectangle;collapsible=0;dropTarget=0;pointerEvents=0;fillColor=none;top=0;left=0;bottom=0;right=0;points=[[0,0.5],[1,0.5]];portConstraint=eastwest;strokeColor=#006658;fontColor=#5C5C5C;" vertex="1" parent="w6SyLkoHs6t1NlBvXJBp-100">
          <mxGeometry y="90" width="180" height="30" as="geometry" />
        </mxCell>
        <mxCell id="w6SyLkoHs6t1NlBvXJBp-108" value="" style="shape=partialRectangle;connectable=0;fillColor=none;top=0;left=0;bottom=0;right=0;editable=1;overflow=hidden;strokeColor=#006658;fontColor=#5C5C5C;" vertex="1" parent="w6SyLkoHs6t1NlBvXJBp-107">
          <mxGeometry width="30" height="30" as="geometry" />
        </mxCell>
        <mxCell id="w6SyLkoHs6t1NlBvXJBp-109" value="CreateTime" style="shape=partialRectangle;connectable=0;fillColor=none;top=0;left=0;bottom=0;right=0;align=left;spacingLeft=6;overflow=hidden;strokeColor=#006658;fontColor=#5C5C5C;" vertex="1" parent="w6SyLkoHs6t1NlBvXJBp-107">
          <mxGeometry x="30" width="150" height="30" as="geometry" />
        </mxCell>
        <mxCell id="w6SyLkoHs6t1NlBvXJBp-110" value="" style="shape=partialRectangle;collapsible=0;dropTarget=0;pointerEvents=0;fillColor=none;top=0;left=0;bottom=0;right=0;points=[[0,0.5],[1,0.5]];portConstraint=eastwest;strokeColor=#006658;fontColor=#5C5C5C;" vertex="1" parent="w6SyLkoHs6t1NlBvXJBp-100">
          <mxGeometry y="120" width="180" height="30" as="geometry" />
        </mxCell>
        <mxCell id="w6SyLkoHs6t1NlBvXJBp-111" value="" style="shape=partialRectangle;connectable=0;fillColor=none;top=0;left=0;bottom=0;right=0;editable=1;overflow=hidden;strokeColor=#006658;fontColor=#5C5C5C;" vertex="1" parent="w6SyLkoHs6t1NlBvXJBp-110">
          <mxGeometry width="30" height="30" as="geometry" />
        </mxCell>
        <mxCell id="w6SyLkoHs6t1NlBvXJBp-112" value="ModifyTime" style="shape=partialRectangle;connectable=0;fillColor=none;top=0;left=0;bottom=0;right=0;align=left;spacingLeft=6;overflow=hidden;strokeColor=#006658;fontColor=#5C5C5C;" vertex="1" parent="w6SyLkoHs6t1NlBvXJBp-110">
          <mxGeometry x="30" width="150" height="30" as="geometry" />
        </mxCell>
        <mxCell id="w6SyLkoHs6t1NlBvXJBp-113" value="Company" style="shape=table;startSize=30;container=1;collapsible=1;childLayout=tableLayout;fixedRows=1;rowLines=0;fontStyle=1;align=center;resizeLast=1;fillColor=#21C0A5;strokeColor=#006658;fontColor=#5C5C5C;" vertex="1" collapsed="1" parent="1">
          <mxGeometry x="414" y="580" width="60" height="30" as="geometry">
            <mxRectangle x="90" y="380" width="180" height="160" as="alternateBounds" />
          </mxGeometry>
        </mxCell>
        <mxCell id="w6SyLkoHs6t1NlBvXJBp-114" value="" style="shape=partialRectangle;collapsible=0;dropTarget=0;pointerEvents=0;fillColor=none;top=0;left=0;bottom=1;right=0;points=[[0,0.5],[1,0.5]];portConstraint=eastwest;strokeColor=#006658;fontColor=#5C5C5C;" vertex="1" parent="w6SyLkoHs6t1NlBvXJBp-113">
          <mxGeometry y="30" width="180" height="30" as="geometry" />
        </mxCell>
        <mxCell id="w6SyLkoHs6t1NlBvXJBp-115" value="PK" style="shape=partialRectangle;connectable=0;fillColor=none;top=0;left=0;bottom=0;right=0;fontStyle=1;overflow=hidden;strokeColor=#006658;fontColor=#5C5C5C;" vertex="1" parent="w6SyLkoHs6t1NlBvXJBp-114">
          <mxGeometry width="30" height="30" as="geometry" />
        </mxCell>
        <mxCell id="w6SyLkoHs6t1NlBvXJBp-116" value="ID" style="shape=partialRectangle;connectable=0;fillColor=none;top=0;left=0;bottom=0;right=0;align=left;spacingLeft=6;fontStyle=5;overflow=hidden;strokeColor=#006658;fontColor=#5C5C5C;" vertex="1" parent="w6SyLkoHs6t1NlBvXJBp-114">
          <mxGeometry x="30" width="150" height="30" as="geometry" />
        </mxCell>
        <mxCell id="w6SyLkoHs6t1NlBvXJBp-117" value="" style="shape=partialRectangle;collapsible=0;dropTarget=0;pointerEvents=0;fillColor=none;top=0;left=0;bottom=0;right=0;points=[[0,0.5],[1,0.5]];portConstraint=eastwest;strokeColor=#006658;fontColor=#5C5C5C;" vertex="1" parent="w6SyLkoHs6t1NlBvXJBp-113">
          <mxGeometry y="60" width="180" height="30" as="geometry" />
        </mxCell>
        <mxCell id="w6SyLkoHs6t1NlBvXJBp-118" value="" style="shape=partialRectangle;connectable=0;fillColor=none;top=0;left=0;bottom=0;right=0;editable=1;overflow=hidden;strokeColor=#006658;fontColor=#5C5C5C;" vertex="1" parent="w6SyLkoHs6t1NlBvXJBp-117">
          <mxGeometry width="30" height="30" as="geometry" />
        </mxCell>
        <mxCell id="w6SyLkoHs6t1NlBvXJBp-119" value="IsRemove" style="shape=partialRectangle;connectable=0;fillColor=none;top=0;left=0;bottom=0;right=0;align=left;spacingLeft=6;overflow=hidden;strokeColor=#006658;fontColor=#5C5C5C;" vertex="1" parent="w6SyLkoHs6t1NlBvXJBp-117">
          <mxGeometry x="30" width="150" height="30" as="geometry" />
        </mxCell>
        <mxCell id="w6SyLkoHs6t1NlBvXJBp-120" value="" style="shape=partialRectangle;collapsible=0;dropTarget=0;pointerEvents=0;fillColor=none;top=0;left=0;bottom=0;right=0;points=[[0,0.5],[1,0.5]];portConstraint=eastwest;strokeColor=#006658;fontColor=#5C5C5C;" vertex="1" parent="w6SyLkoHs6t1NlBvXJBp-113">
          <mxGeometry y="90" width="180" height="30" as="geometry" />
        </mxCell>
        <mxCell id="w6SyLkoHs6t1NlBvXJBp-121" value="" style="shape=partialRectangle;connectable=0;fillColor=none;top=0;left=0;bottom=0;right=0;editable=1;overflow=hidden;strokeColor=#006658;fontColor=#5C5C5C;" vertex="1" parent="w6SyLkoHs6t1NlBvXJBp-120">
          <mxGeometry width="30" height="30" as="geometry" />
        </mxCell>
        <mxCell id="w6SyLkoHs6t1NlBvXJBp-122" value="CreateTime" style="shape=partialRectangle;connectable=0;fillColor=none;top=0;left=0;bottom=0;right=0;align=left;spacingLeft=6;overflow=hidden;strokeColor=#006658;fontColor=#5C5C5C;" vertex="1" parent="w6SyLkoHs6t1NlBvXJBp-120">
          <mxGeometry x="30" width="150" height="30" as="geometry" />
        </mxCell>
        <mxCell id="w6SyLkoHs6t1NlBvXJBp-123" value="" style="shape=partialRectangle;collapsible=0;dropTarget=0;pointerEvents=0;fillColor=none;top=0;left=0;bottom=0;right=0;points=[[0,0.5],[1,0.5]];portConstraint=eastwest;strokeColor=#006658;fontColor=#5C5C5C;" vertex="1" parent="w6SyLkoHs6t1NlBvXJBp-113">
          <mxGeometry y="120" width="180" height="30" as="geometry" />
        </mxCell>
        <mxCell id="w6SyLkoHs6t1NlBvXJBp-124" value="" style="shape=partialRectangle;connectable=0;fillColor=none;top=0;left=0;bottom=0;right=0;editable=1;overflow=hidden;strokeColor=#006658;fontColor=#5C5C5C;" vertex="1" parent="w6SyLkoHs6t1NlBvXJBp-123">
          <mxGeometry width="30" height="30" as="geometry" />
        </mxCell>
        <mxCell id="w6SyLkoHs6t1NlBvXJBp-125" value="ModifyTime" style="shape=partialRectangle;connectable=0;fillColor=none;top=0;left=0;bottom=0;right=0;align=left;spacingLeft=6;overflow=hidden;strokeColor=#006658;fontColor=#5C5C5C;" vertex="1" parent="w6SyLkoHs6t1NlBvXJBp-123">
          <mxGeometry x="30" width="150" height="30" as="geometry" />
        </mxCell>
        <mxCell id="w6SyLkoHs6t1NlBvXJBp-126" value="Figure" style="shape=table;startSize=30;container=1;collapsible=1;childLayout=tableLayout;fixedRows=1;rowLines=0;fontStyle=1;align=center;resizeLast=1;fillColor=#21C0A5;strokeColor=#006658;fontColor=#5C5C5C;" vertex="1" collapsed="1" parent="1">
          <mxGeometry x="290" y="570" width="60" height="30" as="geometry">
            <mxRectangle x="90" y="380" width="180" height="160" as="alternateBounds" />
          </mxGeometry>
        </mxCell>
        <mxCell id="w6SyLkoHs6t1NlBvXJBp-127" value="" style="shape=partialRectangle;collapsible=0;dropTarget=0;pointerEvents=0;fillColor=none;top=0;left=0;bottom=1;right=0;points=[[0,0.5],[1,0.5]];portConstraint=eastwest;strokeColor=#006658;fontColor=#5C5C5C;" vertex="1" parent="w6SyLkoHs6t1NlBvXJBp-126">
          <mxGeometry y="30" width="180" height="30" as="geometry" />
        </mxCell>
        <mxCell id="w6SyLkoHs6t1NlBvXJBp-128" value="PK" style="shape=partialRectangle;connectable=0;fillColor=none;top=0;left=0;bottom=0;right=0;fontStyle=1;overflow=hidden;strokeColor=#006658;fontColor=#5C5C5C;" vertex="1" parent="w6SyLkoHs6t1NlBvXJBp-127">
          <mxGeometry width="30" height="30" as="geometry" />
        </mxCell>
        <mxCell id="w6SyLkoHs6t1NlBvXJBp-129" value="ID" style="shape=partialRectangle;connectable=0;fillColor=none;top=0;left=0;bottom=0;right=0;align=left;spacingLeft=6;fontStyle=5;overflow=hidden;strokeColor=#006658;fontColor=#5C5C5C;" vertex="1" parent="w6SyLkoHs6t1NlBvXJBp-127">
          <mxGeometry x="30" width="150" height="30" as="geometry" />
        </mxCell>
        <mxCell id="w6SyLkoHs6t1NlBvXJBp-130" value="" style="shape=partialRectangle;collapsible=0;dropTarget=0;pointerEvents=0;fillColor=none;top=0;left=0;bottom=0;right=0;points=[[0,0.5],[1,0.5]];portConstraint=eastwest;strokeColor=#006658;fontColor=#5C5C5C;" vertex="1" parent="w6SyLkoHs6t1NlBvXJBp-126">
          <mxGeometry y="60" width="180" height="30" as="geometry" />
        </mxCell>
        <mxCell id="w6SyLkoHs6t1NlBvXJBp-131" value="" style="shape=partialRectangle;connectable=0;fillColor=none;top=0;left=0;bottom=0;right=0;editable=1;overflow=hidden;strokeColor=#006658;fontColor=#5C5C5C;" vertex="1" parent="w6SyLkoHs6t1NlBvXJBp-130">
          <mxGeometry width="30" height="30" as="geometry" />
        </mxCell>
        <mxCell id="w6SyLkoHs6t1NlBvXJBp-132" value="IsRemove" style="shape=partialRectangle;connectable=0;fillColor=none;top=0;left=0;bottom=0;right=0;align=left;spacingLeft=6;overflow=hidden;strokeColor=#006658;fontColor=#5C5C5C;" vertex="1" parent="w6SyLkoHs6t1NlBvXJBp-130">
          <mxGeometry x="30" width="150" height="30" as="geometry" />
        </mxCell>
        <mxCell id="w6SyLkoHs6t1NlBvXJBp-133" value="" style="shape=partialRectangle;collapsible=0;dropTarget=0;pointerEvents=0;fillColor=none;top=0;left=0;bottom=0;right=0;points=[[0,0.5],[1,0.5]];portConstraint=eastwest;strokeColor=#006658;fontColor=#5C5C5C;" vertex="1" parent="w6SyLkoHs6t1NlBvXJBp-126">
          <mxGeometry y="90" width="180" height="30" as="geometry" />
        </mxCell>
        <mxCell id="w6SyLkoHs6t1NlBvXJBp-134" value="" style="shape=partialRectangle;connectable=0;fillColor=none;top=0;left=0;bottom=0;right=0;editable=1;overflow=hidden;strokeColor=#006658;fontColor=#5C5C5C;" vertex="1" parent="w6SyLkoHs6t1NlBvXJBp-133">
          <mxGeometry width="30" height="30" as="geometry" />
        </mxCell>
        <mxCell id="w6SyLkoHs6t1NlBvXJBp-135" value="CreateTime" style="shape=partialRectangle;connectable=0;fillColor=none;top=0;left=0;bottom=0;right=0;align=left;spacingLeft=6;overflow=hidden;strokeColor=#006658;fontColor=#5C5C5C;" vertex="1" parent="w6SyLkoHs6t1NlBvXJBp-133">
          <mxGeometry x="30" width="150" height="30" as="geometry" />
        </mxCell>
        <mxCell id="w6SyLkoHs6t1NlBvXJBp-136" value="" style="shape=partialRectangle;collapsible=0;dropTarget=0;pointerEvents=0;fillColor=none;top=0;left=0;bottom=0;right=0;points=[[0,0.5],[1,0.5]];portConstraint=eastwest;strokeColor=#006658;fontColor=#5C5C5C;" vertex="1" parent="w6SyLkoHs6t1NlBvXJBp-126">
          <mxGeometry y="120" width="180" height="30" as="geometry" />
        </mxCell>
        <mxCell id="w6SyLkoHs6t1NlBvXJBp-137" value="" style="shape=partialRectangle;connectable=0;fillColor=none;top=0;left=0;bottom=0;right=0;editable=1;overflow=hidden;strokeColor=#006658;fontColor=#5C5C5C;" vertex="1" parent="w6SyLkoHs6t1NlBvXJBp-136">
          <mxGeometry width="30" height="30" as="geometry" />
        </mxCell>
        <mxCell id="w6SyLkoHs6t1NlBvXJBp-138" value="ModifyTime" style="shape=partialRectangle;connectable=0;fillColor=none;top=0;left=0;bottom=0;right=0;align=left;spacingLeft=6;overflow=hidden;strokeColor=#006658;fontColor=#5C5C5C;" vertex="1" parent="w6SyLkoHs6t1NlBvXJBp-136">
          <mxGeometry x="30" width="150" height="30" as="geometry" />
        </mxCell>
        <mxCell id="w6SyLkoHs6t1NlBvXJBp-139" value="FG_Attribute" style="shape=table;startSize=30;container=1;collapsible=1;childLayout=tableLayout;fixedRows=1;rowLines=0;fontStyle=1;align=center;resizeLast=1;fillColor=#21C0A5;strokeColor=#006658;fontColor=#5C5C5C;" vertex="1" collapsed="1" parent="1">
          <mxGeometry x="150" y="570" width="80" height="30" as="geometry">
            <mxRectangle x="80" y="550" width="180" height="160" as="alternateBounds" />
          </mxGeometry>
        </mxCell>
        <mxCell id="w6SyLkoHs6t1NlBvXJBp-140" value="" style="shape=partialRectangle;collapsible=0;dropTarget=0;pointerEvents=0;fillColor=none;top=0;left=0;bottom=1;right=0;points=[[0,0.5],[1,0.5]];portConstraint=eastwest;strokeColor=#006658;fontColor=#5C5C5C;" vertex="1" parent="w6SyLkoHs6t1NlBvXJBp-139">
          <mxGeometry y="30" width="180" height="30" as="geometry" />
        </mxCell>
        <mxCell id="w6SyLkoHs6t1NlBvXJBp-141" value="PK" style="shape=partialRectangle;connectable=0;fillColor=none;top=0;left=0;bottom=0;right=0;fontStyle=1;overflow=hidden;strokeColor=#006658;fontColor=#5C5C5C;" vertex="1" parent="w6SyLkoHs6t1NlBvXJBp-140">
          <mxGeometry width="30" height="30" as="geometry" />
        </mxCell>
        <mxCell id="w6SyLkoHs6t1NlBvXJBp-142" value="ID" style="shape=partialRectangle;connectable=0;fillColor=none;top=0;left=0;bottom=0;right=0;align=left;spacingLeft=6;fontStyle=5;overflow=hidden;strokeColor=#006658;fontColor=#5C5C5C;" vertex="1" parent="w6SyLkoHs6t1NlBvXJBp-140">
          <mxGeometry x="30" width="150" height="30" as="geometry" />
        </mxCell>
        <mxCell id="w6SyLkoHs6t1NlBvXJBp-143" value="" style="shape=partialRectangle;collapsible=0;dropTarget=0;pointerEvents=0;fillColor=none;top=0;left=0;bottom=0;right=0;points=[[0,0.5],[1,0.5]];portConstraint=eastwest;strokeColor=#006658;fontColor=#5C5C5C;" vertex="1" parent="w6SyLkoHs6t1NlBvXJBp-139">
          <mxGeometry y="60" width="180" height="30" as="geometry" />
        </mxCell>
        <mxCell id="w6SyLkoHs6t1NlBvXJBp-144" value="" style="shape=partialRectangle;connectable=0;fillColor=none;top=0;left=0;bottom=0;right=0;editable=1;overflow=hidden;strokeColor=#006658;fontColor=#5C5C5C;" vertex="1" parent="w6SyLkoHs6t1NlBvXJBp-143">
          <mxGeometry width="30" height="30" as="geometry" />
        </mxCell>
        <mxCell id="w6SyLkoHs6t1NlBvXJBp-145" value="IsRemove" style="shape=partialRectangle;connectable=0;fillColor=none;top=0;left=0;bottom=0;right=0;align=left;spacingLeft=6;overflow=hidden;strokeColor=#006658;fontColor=#5C5C5C;" vertex="1" parent="w6SyLkoHs6t1NlBvXJBp-143">
          <mxGeometry x="30" width="150" height="30" as="geometry" />
        </mxCell>
        <mxCell id="w6SyLkoHs6t1NlBvXJBp-146" value="" style="shape=partialRectangle;collapsible=0;dropTarget=0;pointerEvents=0;fillColor=none;top=0;left=0;bottom=0;right=0;points=[[0,0.5],[1,0.5]];portConstraint=eastwest;strokeColor=#006658;fontColor=#5C5C5C;" vertex="1" parent="w6SyLkoHs6t1NlBvXJBp-139">
          <mxGeometry y="90" width="180" height="30" as="geometry" />
        </mxCell>
        <mxCell id="w6SyLkoHs6t1NlBvXJBp-147" value="" style="shape=partialRectangle;connectable=0;fillColor=none;top=0;left=0;bottom=0;right=0;editable=1;overflow=hidden;strokeColor=#006658;fontColor=#5C5C5C;" vertex="1" parent="w6SyLkoHs6t1NlBvXJBp-146">
          <mxGeometry width="30" height="30" as="geometry" />
        </mxCell>
        <mxCell id="w6SyLkoHs6t1NlBvXJBp-148" value="CreateTime" style="shape=partialRectangle;connectable=0;fillColor=none;top=0;left=0;bottom=0;right=0;align=left;spacingLeft=6;overflow=hidden;strokeColor=#006658;fontColor=#5C5C5C;" vertex="1" parent="w6SyLkoHs6t1NlBvXJBp-146">
          <mxGeometry x="30" width="150" height="30" as="geometry" />
        </mxCell>
        <mxCell id="w6SyLkoHs6t1NlBvXJBp-149" value="" style="shape=partialRectangle;collapsible=0;dropTarget=0;pointerEvents=0;fillColor=none;top=0;left=0;bottom=0;right=0;points=[[0,0.5],[1,0.5]];portConstraint=eastwest;strokeColor=#006658;fontColor=#5C5C5C;" vertex="1" parent="w6SyLkoHs6t1NlBvXJBp-139">
          <mxGeometry y="120" width="180" height="30" as="geometry" />
        </mxCell>
        <mxCell id="w6SyLkoHs6t1NlBvXJBp-150" value="" style="shape=partialRectangle;connectable=0;fillColor=none;top=0;left=0;bottom=0;right=0;editable=1;overflow=hidden;strokeColor=#006658;fontColor=#5C5C5C;" vertex="1" parent="w6SyLkoHs6t1NlBvXJBp-149">
          <mxGeometry width="30" height="30" as="geometry" />
        </mxCell>
        <mxCell id="w6SyLkoHs6t1NlBvXJBp-151" value="ModifyTime" style="shape=partialRectangle;connectable=0;fillColor=none;top=0;left=0;bottom=0;right=0;align=left;spacingLeft=6;overflow=hidden;strokeColor=#006658;fontColor=#5C5C5C;" vertex="1" parent="w6SyLkoHs6t1NlBvXJBp-149">
          <mxGeometry x="30" width="150" height="30" as="geometry" />
        </mxCell>
        <mxCell id="w6SyLkoHs6t1NlBvXJBp-152" value="Attribute" style="shape=table;startSize=30;container=1;collapsible=1;childLayout=tableLayout;fixedRows=1;rowLines=0;fontStyle=1;align=center;resizeLast=1;fillColor=#21C0A5;strokeColor=#006658;fontColor=#5C5C5C;" vertex="1" collapsed="1" parent="1">
          <mxGeometry x="30" y="570" width="60" height="30" as="geometry">
            <mxRectangle x="90" y="380" width="180" height="160" as="alternateBounds" />
          </mxGeometry>
        </mxCell>
        <mxCell id="w6SyLkoHs6t1NlBvXJBp-153" value="" style="shape=partialRectangle;collapsible=0;dropTarget=0;pointerEvents=0;fillColor=none;top=0;left=0;bottom=1;right=0;points=[[0,0.5],[1,0.5]];portConstraint=eastwest;strokeColor=#006658;fontColor=#5C5C5C;" vertex="1" parent="w6SyLkoHs6t1NlBvXJBp-152">
          <mxGeometry y="30" width="180" height="30" as="geometry" />
        </mxCell>
        <mxCell id="w6SyLkoHs6t1NlBvXJBp-154" value="PK" style="shape=partialRectangle;connectable=0;fillColor=none;top=0;left=0;bottom=0;right=0;fontStyle=1;overflow=hidden;strokeColor=#006658;fontColor=#5C5C5C;" vertex="1" parent="w6SyLkoHs6t1NlBvXJBp-153">
          <mxGeometry width="30" height="30" as="geometry" />
        </mxCell>
        <mxCell id="w6SyLkoHs6t1NlBvXJBp-155" value="ID" style="shape=partialRectangle;connectable=0;fillColor=none;top=0;left=0;bottom=0;right=0;align=left;spacingLeft=6;fontStyle=5;overflow=hidden;strokeColor=#006658;fontColor=#5C5C5C;" vertex="1" parent="w6SyLkoHs6t1NlBvXJBp-153">
          <mxGeometry x="30" width="150" height="30" as="geometry" />
        </mxCell>
        <mxCell id="w6SyLkoHs6t1NlBvXJBp-156" value="" style="shape=partialRectangle;collapsible=0;dropTarget=0;pointerEvents=0;fillColor=none;top=0;left=0;bottom=0;right=0;points=[[0,0.5],[1,0.5]];portConstraint=eastwest;strokeColor=#006658;fontColor=#5C5C5C;" vertex="1" parent="w6SyLkoHs6t1NlBvXJBp-152">
          <mxGeometry y="60" width="180" height="30" as="geometry" />
        </mxCell>
        <mxCell id="w6SyLkoHs6t1NlBvXJBp-157" value="" style="shape=partialRectangle;connectable=0;fillColor=none;top=0;left=0;bottom=0;right=0;editable=1;overflow=hidden;strokeColor=#006658;fontColor=#5C5C5C;" vertex="1" parent="w6SyLkoHs6t1NlBvXJBp-156">
          <mxGeometry width="30" height="30" as="geometry" />
        </mxCell>
        <mxCell id="w6SyLkoHs6t1NlBvXJBp-158" value="IsRemove" style="shape=partialRectangle;connectable=0;fillColor=none;top=0;left=0;bottom=0;right=0;align=left;spacingLeft=6;overflow=hidden;strokeColor=#006658;fontColor=#5C5C5C;" vertex="1" parent="w6SyLkoHs6t1NlBvXJBp-156">
          <mxGeometry x="30" width="150" height="30" as="geometry" />
        </mxCell>
        <mxCell id="w6SyLkoHs6t1NlBvXJBp-159" value="" style="shape=partialRectangle;collapsible=0;dropTarget=0;pointerEvents=0;fillColor=none;top=0;left=0;bottom=0;right=0;points=[[0,0.5],[1,0.5]];portConstraint=eastwest;strokeColor=#006658;fontColor=#5C5C5C;" vertex="1" parent="w6SyLkoHs6t1NlBvXJBp-152">
          <mxGeometry y="90" width="180" height="30" as="geometry" />
        </mxCell>
        <mxCell id="w6SyLkoHs6t1NlBvXJBp-160" value="" style="shape=partialRectangle;connectable=0;fillColor=none;top=0;left=0;bottom=0;right=0;editable=1;overflow=hidden;strokeColor=#006658;fontColor=#5C5C5C;" vertex="1" parent="w6SyLkoHs6t1NlBvXJBp-159">
          <mxGeometry width="30" height="30" as="geometry" />
        </mxCell>
        <mxCell id="w6SyLkoHs6t1NlBvXJBp-161" value="CreateTime" style="shape=partialRectangle;connectable=0;fillColor=none;top=0;left=0;bottom=0;right=0;align=left;spacingLeft=6;overflow=hidden;strokeColor=#006658;fontColor=#5C5C5C;" vertex="1" parent="w6SyLkoHs6t1NlBvXJBp-159">
          <mxGeometry x="30" width="150" height="30" as="geometry" />
        </mxCell>
        <mxCell id="w6SyLkoHs6t1NlBvXJBp-162" value="" style="shape=partialRectangle;collapsible=0;dropTarget=0;pointerEvents=0;fillColor=none;top=0;left=0;bottom=0;right=0;points=[[0,0.5],[1,0.5]];portConstraint=eastwest;strokeColor=#006658;fontColor=#5C5C5C;" vertex="1" parent="w6SyLkoHs6t1NlBvXJBp-152">
          <mxGeometry y="120" width="180" height="30" as="geometry" />
        </mxCell>
        <mxCell id="w6SyLkoHs6t1NlBvXJBp-163" value="" style="shape=partialRectangle;connectable=0;fillColor=none;top=0;left=0;bottom=0;right=0;editable=1;overflow=hidden;strokeColor=#006658;fontColor=#5C5C5C;" vertex="1" parent="w6SyLkoHs6t1NlBvXJBp-162">
          <mxGeometry width="30" height="30" as="geometry" />
        </mxCell>
        <mxCell id="w6SyLkoHs6t1NlBvXJBp-164" value="ModifyTime" style="shape=partialRectangle;connectable=0;fillColor=none;top=0;left=0;bottom=0;right=0;align=left;spacingLeft=6;overflow=hidden;strokeColor=#006658;fontColor=#5C5C5C;" vertex="1" parent="w6SyLkoHs6t1NlBvXJBp-162">
          <mxGeometry x="30" width="150" height="30" as="geometry" />
        </mxCell>
        <mxCell id="w6SyLkoHs6t1NlBvXJBp-165" value="Tag" style="shape=table;startSize=30;container=1;collapsible=1;childLayout=tableLayout;fixedRows=1;rowLines=0;fontStyle=1;align=center;resizeLast=1;fillColor=#21C0A5;strokeColor=#006658;fontColor=#5C5C5C;" vertex="1" collapsed="1" parent="1">
          <mxGeometry x="30" y="610" width="60" height="30" as="geometry">
            <mxRectangle x="90" y="380" width="180" height="160" as="alternateBounds" />
          </mxGeometry>
        </mxCell>
        <mxCell id="w6SyLkoHs6t1NlBvXJBp-166" value="" style="shape=partialRectangle;collapsible=0;dropTarget=0;pointerEvents=0;fillColor=none;top=0;left=0;bottom=1;right=0;points=[[0,0.5],[1,0.5]];portConstraint=eastwest;strokeColor=#006658;fontColor=#5C5C5C;" vertex="1" parent="w6SyLkoHs6t1NlBvXJBp-165">
          <mxGeometry y="30" width="180" height="30" as="geometry" />
        </mxCell>
        <mxCell id="w6SyLkoHs6t1NlBvXJBp-167" value="PK" style="shape=partialRectangle;connectable=0;fillColor=none;top=0;left=0;bottom=0;right=0;fontStyle=1;overflow=hidden;strokeColor=#006658;fontColor=#5C5C5C;" vertex="1" parent="w6SyLkoHs6t1NlBvXJBp-166">
          <mxGeometry width="30" height="30" as="geometry" />
        </mxCell>
        <mxCell id="w6SyLkoHs6t1NlBvXJBp-168" value="ID" style="shape=partialRectangle;connectable=0;fillColor=none;top=0;left=0;bottom=0;right=0;align=left;spacingLeft=6;fontStyle=5;overflow=hidden;strokeColor=#006658;fontColor=#5C5C5C;" vertex="1" parent="w6SyLkoHs6t1NlBvXJBp-166">
          <mxGeometry x="30" width="150" height="30" as="geometry" />
        </mxCell>
        <mxCell id="w6SyLkoHs6t1NlBvXJBp-169" value="" style="shape=partialRectangle;collapsible=0;dropTarget=0;pointerEvents=0;fillColor=none;top=0;left=0;bottom=0;right=0;points=[[0,0.5],[1,0.5]];portConstraint=eastwest;strokeColor=#006658;fontColor=#5C5C5C;" vertex="1" parent="w6SyLkoHs6t1NlBvXJBp-165">
          <mxGeometry y="60" width="180" height="30" as="geometry" />
        </mxCell>
        <mxCell id="w6SyLkoHs6t1NlBvXJBp-170" value="" style="shape=partialRectangle;connectable=0;fillColor=none;top=0;left=0;bottom=0;right=0;editable=1;overflow=hidden;strokeColor=#006658;fontColor=#5C5C5C;" vertex="1" parent="w6SyLkoHs6t1NlBvXJBp-169">
          <mxGeometry width="30" height="30" as="geometry" />
        </mxCell>
        <mxCell id="w6SyLkoHs6t1NlBvXJBp-171" value="IsRemove" style="shape=partialRectangle;connectable=0;fillColor=none;top=0;left=0;bottom=0;right=0;align=left;spacingLeft=6;overflow=hidden;strokeColor=#006658;fontColor=#5C5C5C;" vertex="1" parent="w6SyLkoHs6t1NlBvXJBp-169">
          <mxGeometry x="30" width="150" height="30" as="geometry" />
        </mxCell>
        <mxCell id="w6SyLkoHs6t1NlBvXJBp-172" value="" style="shape=partialRectangle;collapsible=0;dropTarget=0;pointerEvents=0;fillColor=none;top=0;left=0;bottom=0;right=0;points=[[0,0.5],[1,0.5]];portConstraint=eastwest;strokeColor=#006658;fontColor=#5C5C5C;" vertex="1" parent="w6SyLkoHs6t1NlBvXJBp-165">
          <mxGeometry y="90" width="180" height="30" as="geometry" />
        </mxCell>
        <mxCell id="w6SyLkoHs6t1NlBvXJBp-173" value="" style="shape=partialRectangle;connectable=0;fillColor=none;top=0;left=0;bottom=0;right=0;editable=1;overflow=hidden;strokeColor=#006658;fontColor=#5C5C5C;" vertex="1" parent="w6SyLkoHs6t1NlBvXJBp-172">
          <mxGeometry width="30" height="30" as="geometry" />
        </mxCell>
        <mxCell id="w6SyLkoHs6t1NlBvXJBp-174" value="CreateTime" style="shape=partialRectangle;connectable=0;fillColor=none;top=0;left=0;bottom=0;right=0;align=left;spacingLeft=6;overflow=hidden;strokeColor=#006658;fontColor=#5C5C5C;" vertex="1" parent="w6SyLkoHs6t1NlBvXJBp-172">
          <mxGeometry x="30" width="150" height="30" as="geometry" />
        </mxCell>
        <mxCell id="w6SyLkoHs6t1NlBvXJBp-175" value="" style="shape=partialRectangle;collapsible=0;dropTarget=0;pointerEvents=0;fillColor=none;top=0;left=0;bottom=0;right=0;points=[[0,0.5],[1,0.5]];portConstraint=eastwest;strokeColor=#006658;fontColor=#5C5C5C;" vertex="1" parent="w6SyLkoHs6t1NlBvXJBp-165">
          <mxGeometry y="120" width="180" height="30" as="geometry" />
        </mxCell>
        <mxCell id="w6SyLkoHs6t1NlBvXJBp-176" value="" style="shape=partialRectangle;connectable=0;fillColor=none;top=0;left=0;bottom=0;right=0;editable=1;overflow=hidden;strokeColor=#006658;fontColor=#5C5C5C;" vertex="1" parent="w6SyLkoHs6t1NlBvXJBp-175">
          <mxGeometry width="30" height="30" as="geometry" />
        </mxCell>
        <mxCell id="w6SyLkoHs6t1NlBvXJBp-177" value="ModifyTime" style="shape=partialRectangle;connectable=0;fillColor=none;top=0;left=0;bottom=0;right=0;align=left;spacingLeft=6;overflow=hidden;strokeColor=#006658;fontColor=#5C5C5C;" vertex="1" parent="w6SyLkoHs6t1NlBvXJBp-175">
          <mxGeometry x="30" width="150" height="30" as="geometry" />
        </mxCell>
        <mxCell id="w6SyLkoHs6t1NlBvXJBp-178" value="FG_Tag" style="shape=table;startSize=30;container=1;collapsible=1;childLayout=tableLayout;fixedRows=1;rowLines=0;fontStyle=1;align=center;resizeLast=1;fillColor=#21C0A5;strokeColor=#006658;fontColor=#5C5C5C;" vertex="1" collapsed="1" parent="1">
          <mxGeometry x="150" y="620" width="80" height="30" as="geometry">
            <mxRectangle x="80" y="550" width="180" height="160" as="alternateBounds" />
          </mxGeometry>
        </mxCell>
        <mxCell id="w6SyLkoHs6t1NlBvXJBp-179" value="" style="shape=partialRectangle;collapsible=0;dropTarget=0;pointerEvents=0;fillColor=none;top=0;left=0;bottom=1;right=0;points=[[0,0.5],[1,0.5]];portConstraint=eastwest;strokeColor=#006658;fontColor=#5C5C5C;" vertex="1" parent="w6SyLkoHs6t1NlBvXJBp-178">
          <mxGeometry y="30" width="180" height="30" as="geometry" />
        </mxCell>
        <mxCell id="w6SyLkoHs6t1NlBvXJBp-180" value="PK" style="shape=partialRectangle;connectable=0;fillColor=none;top=0;left=0;bottom=0;right=0;fontStyle=1;overflow=hidden;strokeColor=#006658;fontColor=#5C5C5C;" vertex="1" parent="w6SyLkoHs6t1NlBvXJBp-179">
          <mxGeometry width="30" height="30" as="geometry" />
        </mxCell>
        <mxCell id="w6SyLkoHs6t1NlBvXJBp-181" value="ID" style="shape=partialRectangle;connectable=0;fillColor=none;top=0;left=0;bottom=0;right=0;align=left;spacingLeft=6;fontStyle=5;overflow=hidden;strokeColor=#006658;fontColor=#5C5C5C;" vertex="1" parent="w6SyLkoHs6t1NlBvXJBp-179">
          <mxGeometry x="30" width="150" height="30" as="geometry" />
        </mxCell>
        <mxCell id="w6SyLkoHs6t1NlBvXJBp-182" value="" style="shape=partialRectangle;collapsible=0;dropTarget=0;pointerEvents=0;fillColor=none;top=0;left=0;bottom=0;right=0;points=[[0,0.5],[1,0.5]];portConstraint=eastwest;strokeColor=#006658;fontColor=#5C5C5C;" vertex="1" parent="w6SyLkoHs6t1NlBvXJBp-178">
          <mxGeometry y="60" width="180" height="30" as="geometry" />
        </mxCell>
        <mxCell id="w6SyLkoHs6t1NlBvXJBp-183" value="" style="shape=partialRectangle;connectable=0;fillColor=none;top=0;left=0;bottom=0;right=0;editable=1;overflow=hidden;strokeColor=#006658;fontColor=#5C5C5C;" vertex="1" parent="w6SyLkoHs6t1NlBvXJBp-182">
          <mxGeometry width="30" height="30" as="geometry" />
        </mxCell>
        <mxCell id="w6SyLkoHs6t1NlBvXJBp-184" value="IsRemove" style="shape=partialRectangle;connectable=0;fillColor=none;top=0;left=0;bottom=0;right=0;align=left;spacingLeft=6;overflow=hidden;strokeColor=#006658;fontColor=#5C5C5C;" vertex="1" parent="w6SyLkoHs6t1NlBvXJBp-182">
          <mxGeometry x="30" width="150" height="30" as="geometry" />
        </mxCell>
        <mxCell id="w6SyLkoHs6t1NlBvXJBp-185" value="" style="shape=partialRectangle;collapsible=0;dropTarget=0;pointerEvents=0;fillColor=none;top=0;left=0;bottom=0;right=0;points=[[0,0.5],[1,0.5]];portConstraint=eastwest;strokeColor=#006658;fontColor=#5C5C5C;" vertex="1" parent="w6SyLkoHs6t1NlBvXJBp-178">
          <mxGeometry y="90" width="180" height="30" as="geometry" />
        </mxCell>
        <mxCell id="w6SyLkoHs6t1NlBvXJBp-186" value="" style="shape=partialRectangle;connectable=0;fillColor=none;top=0;left=0;bottom=0;right=0;editable=1;overflow=hidden;strokeColor=#006658;fontColor=#5C5C5C;" vertex="1" parent="w6SyLkoHs6t1NlBvXJBp-185">
          <mxGeometry width="30" height="30" as="geometry" />
        </mxCell>
        <mxCell id="w6SyLkoHs6t1NlBvXJBp-187" value="CreateTime" style="shape=partialRectangle;connectable=0;fillColor=none;top=0;left=0;bottom=0;right=0;align=left;spacingLeft=6;overflow=hidden;strokeColor=#006658;fontColor=#5C5C5C;" vertex="1" parent="w6SyLkoHs6t1NlBvXJBp-185">
          <mxGeometry x="30" width="150" height="30" as="geometry" />
        </mxCell>
        <mxCell id="w6SyLkoHs6t1NlBvXJBp-188" value="" style="shape=partialRectangle;collapsible=0;dropTarget=0;pointerEvents=0;fillColor=none;top=0;left=0;bottom=0;right=0;points=[[0,0.5],[1,0.5]];portConstraint=eastwest;strokeColor=#006658;fontColor=#5C5C5C;" vertex="1" parent="w6SyLkoHs6t1NlBvXJBp-178">
          <mxGeometry y="120" width="180" height="30" as="geometry" />
        </mxCell>
        <mxCell id="w6SyLkoHs6t1NlBvXJBp-189" value="" style="shape=partialRectangle;connectable=0;fillColor=none;top=0;left=0;bottom=0;right=0;editable=1;overflow=hidden;strokeColor=#006658;fontColor=#5C5C5C;" vertex="1" parent="w6SyLkoHs6t1NlBvXJBp-188">
          <mxGeometry width="30" height="30" as="geometry" />
        </mxCell>
        <mxCell id="w6SyLkoHs6t1NlBvXJBp-190" value="ModifyTime" style="shape=partialRectangle;connectable=0;fillColor=none;top=0;left=0;bottom=0;right=0;align=left;spacingLeft=6;overflow=hidden;strokeColor=#006658;fontColor=#5C5C5C;" vertex="1" parent="w6SyLkoHs6t1NlBvXJBp-188">
          <mxGeometry x="30" width="150" height="30" as="geometry" />
        </mxCell>
        <mxCell id="w6SyLkoHs6t1NlBvXJBp-191" value="Series" style="shape=table;startSize=30;container=1;collapsible=1;childLayout=tableLayout;fixedRows=1;rowLines=0;fontStyle=1;align=center;resizeLast=1;fillColor=#21C0A5;strokeColor=#006658;fontColor=#5C5C5C;" vertex="1" collapsed="1" parent="1">
          <mxGeometry x="30" y="730" width="60" height="30" as="geometry">
            <mxRectangle x="90" y="380" width="180" height="160" as="alternateBounds" />
          </mxGeometry>
        </mxCell>
        <mxCell id="w6SyLkoHs6t1NlBvXJBp-192" value="" style="shape=partialRectangle;collapsible=0;dropTarget=0;pointerEvents=0;fillColor=none;top=0;left=0;bottom=1;right=0;points=[[0,0.5],[1,0.5]];portConstraint=eastwest;strokeColor=#006658;fontColor=#5C5C5C;" vertex="1" parent="w6SyLkoHs6t1NlBvXJBp-191">
          <mxGeometry y="30" width="180" height="30" as="geometry" />
        </mxCell>
        <mxCell id="w6SyLkoHs6t1NlBvXJBp-193" value="PK" style="shape=partialRectangle;connectable=0;fillColor=none;top=0;left=0;bottom=0;right=0;fontStyle=1;overflow=hidden;strokeColor=#006658;fontColor=#5C5C5C;" vertex="1" parent="w6SyLkoHs6t1NlBvXJBp-192">
          <mxGeometry width="30" height="30" as="geometry" />
        </mxCell>
        <mxCell id="w6SyLkoHs6t1NlBvXJBp-194" value="ID" style="shape=partialRectangle;connectable=0;fillColor=none;top=0;left=0;bottom=0;right=0;align=left;spacingLeft=6;fontStyle=5;overflow=hidden;strokeColor=#006658;fontColor=#5C5C5C;" vertex="1" parent="w6SyLkoHs6t1NlBvXJBp-192">
          <mxGeometry x="30" width="150" height="30" as="geometry" />
        </mxCell>
        <mxCell id="w6SyLkoHs6t1NlBvXJBp-195" value="" style="shape=partialRectangle;collapsible=0;dropTarget=0;pointerEvents=0;fillColor=none;top=0;left=0;bottom=0;right=0;points=[[0,0.5],[1,0.5]];portConstraint=eastwest;strokeColor=#006658;fontColor=#5C5C5C;" vertex="1" parent="w6SyLkoHs6t1NlBvXJBp-191">
          <mxGeometry y="60" width="180" height="30" as="geometry" />
        </mxCell>
        <mxCell id="w6SyLkoHs6t1NlBvXJBp-196" value="" style="shape=partialRectangle;connectable=0;fillColor=none;top=0;left=0;bottom=0;right=0;editable=1;overflow=hidden;strokeColor=#006658;fontColor=#5C5C5C;" vertex="1" parent="w6SyLkoHs6t1NlBvXJBp-195">
          <mxGeometry width="30" height="30" as="geometry" />
        </mxCell>
        <mxCell id="w6SyLkoHs6t1NlBvXJBp-197" value="IsRemove" style="shape=partialRectangle;connectable=0;fillColor=none;top=0;left=0;bottom=0;right=0;align=left;spacingLeft=6;overflow=hidden;strokeColor=#006658;fontColor=#5C5C5C;" vertex="1" parent="w6SyLkoHs6t1NlBvXJBp-195">
          <mxGeometry x="30" width="150" height="30" as="geometry" />
        </mxCell>
        <mxCell id="w6SyLkoHs6t1NlBvXJBp-198" value="" style="shape=partialRectangle;collapsible=0;dropTarget=0;pointerEvents=0;fillColor=none;top=0;left=0;bottom=0;right=0;points=[[0,0.5],[1,0.5]];portConstraint=eastwest;strokeColor=#006658;fontColor=#5C5C5C;" vertex="1" parent="w6SyLkoHs6t1NlBvXJBp-191">
          <mxGeometry y="90" width="180" height="30" as="geometry" />
        </mxCell>
        <mxCell id="w6SyLkoHs6t1NlBvXJBp-199" value="" style="shape=partialRectangle;connectable=0;fillColor=none;top=0;left=0;bottom=0;right=0;editable=1;overflow=hidden;strokeColor=#006658;fontColor=#5C5C5C;" vertex="1" parent="w6SyLkoHs6t1NlBvXJBp-198">
          <mxGeometry width="30" height="30" as="geometry" />
        </mxCell>
        <mxCell id="w6SyLkoHs6t1NlBvXJBp-200" value="CreateTime" style="shape=partialRectangle;connectable=0;fillColor=none;top=0;left=0;bottom=0;right=0;align=left;spacingLeft=6;overflow=hidden;strokeColor=#006658;fontColor=#5C5C5C;" vertex="1" parent="w6SyLkoHs6t1NlBvXJBp-198">
          <mxGeometry x="30" width="150" height="30" as="geometry" />
        </mxCell>
        <mxCell id="w6SyLkoHs6t1NlBvXJBp-201" value="" style="shape=partialRectangle;collapsible=0;dropTarget=0;pointerEvents=0;fillColor=none;top=0;left=0;bottom=0;right=0;points=[[0,0.5],[1,0.5]];portConstraint=eastwest;strokeColor=#006658;fontColor=#5C5C5C;" vertex="1" parent="w6SyLkoHs6t1NlBvXJBp-191">
          <mxGeometry y="120" width="180" height="30" as="geometry" />
        </mxCell>
        <mxCell id="w6SyLkoHs6t1NlBvXJBp-202" value="" style="shape=partialRectangle;connectable=0;fillColor=none;top=0;left=0;bottom=0;right=0;editable=1;overflow=hidden;strokeColor=#006658;fontColor=#5C5C5C;" vertex="1" parent="w6SyLkoHs6t1NlBvXJBp-201">
          <mxGeometry width="30" height="30" as="geometry" />
        </mxCell>
        <mxCell id="w6SyLkoHs6t1NlBvXJBp-203" value="ModifyTime" style="shape=partialRectangle;connectable=0;fillColor=none;top=0;left=0;bottom=0;right=0;align=left;spacingLeft=6;overflow=hidden;strokeColor=#006658;fontColor=#5C5C5C;" vertex="1" parent="w6SyLkoHs6t1NlBvXJBp-201">
          <mxGeometry x="30" width="150" height="30" as="geometry" />
        </mxCell>
        <mxCell id="w6SyLkoHs6t1NlBvXJBp-204" value="Character" style="shape=table;startSize=30;container=1;collapsible=1;childLayout=tableLayout;fixedRows=1;rowLines=0;fontStyle=1;align=center;resizeLast=1;fillColor=#21C0A5;strokeColor=#006658;fontColor=#5C5C5C;" vertex="1" collapsed="1" parent="1">
          <mxGeometry x="150" y="720" width="60" height="30" as="geometry">
            <mxRectangle x="90" y="380" width="180" height="160" as="alternateBounds" />
          </mxGeometry>
        </mxCell>
        <mxCell id="w6SyLkoHs6t1NlBvXJBp-205" value="" style="shape=partialRectangle;collapsible=0;dropTarget=0;pointerEvents=0;fillColor=none;top=0;left=0;bottom=1;right=0;points=[[0,0.5],[1,0.5]];portConstraint=eastwest;strokeColor=#006658;fontColor=#5C5C5C;" vertex="1" parent="w6SyLkoHs6t1NlBvXJBp-204">
          <mxGeometry y="30" width="180" height="30" as="geometry" />
        </mxCell>
        <mxCell id="w6SyLkoHs6t1NlBvXJBp-206" value="PK" style="shape=partialRectangle;connectable=0;fillColor=none;top=0;left=0;bottom=0;right=0;fontStyle=1;overflow=hidden;strokeColor=#006658;fontColor=#5C5C5C;" vertex="1" parent="w6SyLkoHs6t1NlBvXJBp-205">
          <mxGeometry width="30" height="30" as="geometry" />
        </mxCell>
        <mxCell id="w6SyLkoHs6t1NlBvXJBp-207" value="ID" style="shape=partialRectangle;connectable=0;fillColor=none;top=0;left=0;bottom=0;right=0;align=left;spacingLeft=6;fontStyle=5;overflow=hidden;strokeColor=#006658;fontColor=#5C5C5C;" vertex="1" parent="w6SyLkoHs6t1NlBvXJBp-205">
          <mxGeometry x="30" width="150" height="30" as="geometry" />
        </mxCell>
        <mxCell id="w6SyLkoHs6t1NlBvXJBp-208" value="" style="shape=partialRectangle;collapsible=0;dropTarget=0;pointerEvents=0;fillColor=none;top=0;left=0;bottom=0;right=0;points=[[0,0.5],[1,0.5]];portConstraint=eastwest;strokeColor=#006658;fontColor=#5C5C5C;" vertex="1" parent="w6SyLkoHs6t1NlBvXJBp-204">
          <mxGeometry y="60" width="180" height="30" as="geometry" />
        </mxCell>
        <mxCell id="w6SyLkoHs6t1NlBvXJBp-209" value="" style="shape=partialRectangle;connectable=0;fillColor=none;top=0;left=0;bottom=0;right=0;editable=1;overflow=hidden;strokeColor=#006658;fontColor=#5C5C5C;" vertex="1" parent="w6SyLkoHs6t1NlBvXJBp-208">
          <mxGeometry width="30" height="30" as="geometry" />
        </mxCell>
        <mxCell id="w6SyLkoHs6t1NlBvXJBp-210" value="IsRemove" style="shape=partialRectangle;connectable=0;fillColor=none;top=0;left=0;bottom=0;right=0;align=left;spacingLeft=6;overflow=hidden;strokeColor=#006658;fontColor=#5C5C5C;" vertex="1" parent="w6SyLkoHs6t1NlBvXJBp-208">
          <mxGeometry x="30" width="150" height="30" as="geometry" />
        </mxCell>
        <mxCell id="w6SyLkoHs6t1NlBvXJBp-211" value="" style="shape=partialRectangle;collapsible=0;dropTarget=0;pointerEvents=0;fillColor=none;top=0;left=0;bottom=0;right=0;points=[[0,0.5],[1,0.5]];portConstraint=eastwest;strokeColor=#006658;fontColor=#5C5C5C;" vertex="1" parent="w6SyLkoHs6t1NlBvXJBp-204">
          <mxGeometry y="90" width="180" height="30" as="geometry" />
        </mxCell>
        <mxCell id="w6SyLkoHs6t1NlBvXJBp-212" value="" style="shape=partialRectangle;connectable=0;fillColor=none;top=0;left=0;bottom=0;right=0;editable=1;overflow=hidden;strokeColor=#006658;fontColor=#5C5C5C;" vertex="1" parent="w6SyLkoHs6t1NlBvXJBp-211">
          <mxGeometry width="30" height="30" as="geometry" />
        </mxCell>
        <mxCell id="w6SyLkoHs6t1NlBvXJBp-213" value="CreateTime" style="shape=partialRectangle;connectable=0;fillColor=none;top=0;left=0;bottom=0;right=0;align=left;spacingLeft=6;overflow=hidden;strokeColor=#006658;fontColor=#5C5C5C;" vertex="1" parent="w6SyLkoHs6t1NlBvXJBp-211">
          <mxGeometry x="30" width="150" height="30" as="geometry" />
        </mxCell>
        <mxCell id="w6SyLkoHs6t1NlBvXJBp-214" value="" style="shape=partialRectangle;collapsible=0;dropTarget=0;pointerEvents=0;fillColor=none;top=0;left=0;bottom=0;right=0;points=[[0,0.5],[1,0.5]];portConstraint=eastwest;strokeColor=#006658;fontColor=#5C5C5C;" vertex="1" parent="w6SyLkoHs6t1NlBvXJBp-204">
          <mxGeometry y="120" width="180" height="30" as="geometry" />
        </mxCell>
        <mxCell id="w6SyLkoHs6t1NlBvXJBp-215" value="" style="shape=partialRectangle;connectable=0;fillColor=none;top=0;left=0;bottom=0;right=0;editable=1;overflow=hidden;strokeColor=#006658;fontColor=#5C5C5C;" vertex="1" parent="w6SyLkoHs6t1NlBvXJBp-214">
          <mxGeometry width="30" height="30" as="geometry" />
        </mxCell>
        <mxCell id="w6SyLkoHs6t1NlBvXJBp-216" value="ModifyTime" style="shape=partialRectangle;connectable=0;fillColor=none;top=0;left=0;bottom=0;right=0;align=left;spacingLeft=6;overflow=hidden;strokeColor=#006658;fontColor=#5C5C5C;" vertex="1" parent="w6SyLkoHs6t1NlBvXJBp-214">
          <mxGeometry x="30" width="150" height="30" as="geometry" />
        </mxCell>
        <mxCell id="w6SyLkoHs6t1NlBvXJBp-217" value="StaffType" style="shape=table;startSize=30;container=1;collapsible=1;childLayout=tableLayout;fixedRows=1;rowLines=0;fontStyle=1;align=center;resizeLast=1;fillColor=#21C0A5;strokeColor=#006658;fontColor=#5C5C5C;" vertex="1" collapsed="1" parent="1">
          <mxGeometry x="324" y="730" width="60" height="30" as="geometry">
            <mxRectangle x="90" y="380" width="180" height="160" as="alternateBounds" />
          </mxGeometry>
        </mxCell>
        <mxCell id="w6SyLkoHs6t1NlBvXJBp-218" value="" style="shape=partialRectangle;collapsible=0;dropTarget=0;pointerEvents=0;fillColor=none;top=0;left=0;bottom=1;right=0;points=[[0,0.5],[1,0.5]];portConstraint=eastwest;strokeColor=#006658;fontColor=#5C5C5C;" vertex="1" parent="w6SyLkoHs6t1NlBvXJBp-217">
          <mxGeometry y="30" width="180" height="30" as="geometry" />
        </mxCell>
        <mxCell id="w6SyLkoHs6t1NlBvXJBp-219" value="PK" style="shape=partialRectangle;connectable=0;fillColor=none;top=0;left=0;bottom=0;right=0;fontStyle=1;overflow=hidden;strokeColor=#006658;fontColor=#5C5C5C;" vertex="1" parent="w6SyLkoHs6t1NlBvXJBp-218">
          <mxGeometry width="30" height="30" as="geometry" />
        </mxCell>
        <mxCell id="w6SyLkoHs6t1NlBvXJBp-220" value="ID" style="shape=partialRectangle;connectable=0;fillColor=none;top=0;left=0;bottom=0;right=0;align=left;spacingLeft=6;fontStyle=5;overflow=hidden;strokeColor=#006658;fontColor=#5C5C5C;" vertex="1" parent="w6SyLkoHs6t1NlBvXJBp-218">
          <mxGeometry x="30" width="150" height="30" as="geometry" />
        </mxCell>
        <mxCell id="w6SyLkoHs6t1NlBvXJBp-221" value="" style="shape=partialRectangle;collapsible=0;dropTarget=0;pointerEvents=0;fillColor=none;top=0;left=0;bottom=0;right=0;points=[[0,0.5],[1,0.5]];portConstraint=eastwest;strokeColor=#006658;fontColor=#5C5C5C;" vertex="1" parent="w6SyLkoHs6t1NlBvXJBp-217">
          <mxGeometry y="60" width="180" height="30" as="geometry" />
        </mxCell>
        <mxCell id="w6SyLkoHs6t1NlBvXJBp-222" value="" style="shape=partialRectangle;connectable=0;fillColor=none;top=0;left=0;bottom=0;right=0;editable=1;overflow=hidden;strokeColor=#006658;fontColor=#5C5C5C;" vertex="1" parent="w6SyLkoHs6t1NlBvXJBp-221">
          <mxGeometry width="30" height="30" as="geometry" />
        </mxCell>
        <mxCell id="w6SyLkoHs6t1NlBvXJBp-223" value="IsRemove" style="shape=partialRectangle;connectable=0;fillColor=none;top=0;left=0;bottom=0;right=0;align=left;spacingLeft=6;overflow=hidden;strokeColor=#006658;fontColor=#5C5C5C;" vertex="1" parent="w6SyLkoHs6t1NlBvXJBp-221">
          <mxGeometry x="30" width="150" height="30" as="geometry" />
        </mxCell>
        <mxCell id="w6SyLkoHs6t1NlBvXJBp-224" value="" style="shape=partialRectangle;collapsible=0;dropTarget=0;pointerEvents=0;fillColor=none;top=0;left=0;bottom=0;right=0;points=[[0,0.5],[1,0.5]];portConstraint=eastwest;strokeColor=#006658;fontColor=#5C5C5C;" vertex="1" parent="w6SyLkoHs6t1NlBvXJBp-217">
          <mxGeometry y="90" width="180" height="30" as="geometry" />
        </mxCell>
        <mxCell id="w6SyLkoHs6t1NlBvXJBp-225" value="" style="shape=partialRectangle;connectable=0;fillColor=none;top=0;left=0;bottom=0;right=0;editable=1;overflow=hidden;strokeColor=#006658;fontColor=#5C5C5C;" vertex="1" parent="w6SyLkoHs6t1NlBvXJBp-224">
          <mxGeometry width="30" height="30" as="geometry" />
        </mxCell>
        <mxCell id="w6SyLkoHs6t1NlBvXJBp-226" value="CreateTime" style="shape=partialRectangle;connectable=0;fillColor=none;top=0;left=0;bottom=0;right=0;align=left;spacingLeft=6;overflow=hidden;strokeColor=#006658;fontColor=#5C5C5C;" vertex="1" parent="w6SyLkoHs6t1NlBvXJBp-224">
          <mxGeometry x="30" width="150" height="30" as="geometry" />
        </mxCell>
        <mxCell id="w6SyLkoHs6t1NlBvXJBp-227" value="" style="shape=partialRectangle;collapsible=0;dropTarget=0;pointerEvents=0;fillColor=none;top=0;left=0;bottom=0;right=0;points=[[0,0.5],[1,0.5]];portConstraint=eastwest;strokeColor=#006658;fontColor=#5C5C5C;" vertex="1" parent="w6SyLkoHs6t1NlBvXJBp-217">
          <mxGeometry y="120" width="180" height="30" as="geometry" />
        </mxCell>
        <mxCell id="w6SyLkoHs6t1NlBvXJBp-228" value="" style="shape=partialRectangle;connectable=0;fillColor=none;top=0;left=0;bottom=0;right=0;editable=1;overflow=hidden;strokeColor=#006658;fontColor=#5C5C5C;" vertex="1" parent="w6SyLkoHs6t1NlBvXJBp-227">
          <mxGeometry width="30" height="30" as="geometry" />
        </mxCell>
        <mxCell id="w6SyLkoHs6t1NlBvXJBp-229" value="ModifyTime" style="shape=partialRectangle;connectable=0;fillColor=none;top=0;left=0;bottom=0;right=0;align=left;spacingLeft=6;overflow=hidden;strokeColor=#006658;fontColor=#5C5C5C;" vertex="1" parent="w6SyLkoHs6t1NlBvXJBp-227">
          <mxGeometry x="30" width="150" height="30" as="geometry" />
        </mxCell>
        <mxCell id="w6SyLkoHs6t1NlBvXJBp-230" value="ST_Type" style="shape=table;startSize=30;container=1;collapsible=1;childLayout=tableLayout;fixedRows=1;rowLines=0;fontStyle=1;align=center;resizeLast=1;fillColor=#21C0A5;strokeColor=#006658;fontColor=#5C5C5C;" vertex="1" collapsed="1" parent="1">
          <mxGeometry x="414" y="730" width="60" height="30" as="geometry">
            <mxRectangle x="90" y="380" width="180" height="160" as="alternateBounds" />
          </mxGeometry>
        </mxCell>
        <mxCell id="w6SyLkoHs6t1NlBvXJBp-231" value="" style="shape=partialRectangle;collapsible=0;dropTarget=0;pointerEvents=0;fillColor=none;top=0;left=0;bottom=1;right=0;points=[[0,0.5],[1,0.5]];portConstraint=eastwest;strokeColor=#006658;fontColor=#5C5C5C;" vertex="1" parent="w6SyLkoHs6t1NlBvXJBp-230">
          <mxGeometry y="30" width="180" height="30" as="geometry" />
        </mxCell>
        <mxCell id="w6SyLkoHs6t1NlBvXJBp-232" value="PK" style="shape=partialRectangle;connectable=0;fillColor=none;top=0;left=0;bottom=0;right=0;fontStyle=1;overflow=hidden;strokeColor=#006658;fontColor=#5C5C5C;" vertex="1" parent="w6SyLkoHs6t1NlBvXJBp-231">
          <mxGeometry width="30" height="30" as="geometry" />
        </mxCell>
        <mxCell id="w6SyLkoHs6t1NlBvXJBp-233" value="ID" style="shape=partialRectangle;connectable=0;fillColor=none;top=0;left=0;bottom=0;right=0;align=left;spacingLeft=6;fontStyle=5;overflow=hidden;strokeColor=#006658;fontColor=#5C5C5C;" vertex="1" parent="w6SyLkoHs6t1NlBvXJBp-231">
          <mxGeometry x="30" width="150" height="30" as="geometry" />
        </mxCell>
        <mxCell id="w6SyLkoHs6t1NlBvXJBp-234" value="" style="shape=partialRectangle;collapsible=0;dropTarget=0;pointerEvents=0;fillColor=none;top=0;left=0;bottom=0;right=0;points=[[0,0.5],[1,0.5]];portConstraint=eastwest;strokeColor=#006658;fontColor=#5C5C5C;" vertex="1" parent="w6SyLkoHs6t1NlBvXJBp-230">
          <mxGeometry y="60" width="180" height="30" as="geometry" />
        </mxCell>
        <mxCell id="w6SyLkoHs6t1NlBvXJBp-235" value="" style="shape=partialRectangle;connectable=0;fillColor=none;top=0;left=0;bottom=0;right=0;editable=1;overflow=hidden;strokeColor=#006658;fontColor=#5C5C5C;" vertex="1" parent="w6SyLkoHs6t1NlBvXJBp-234">
          <mxGeometry width="30" height="30" as="geometry" />
        </mxCell>
        <mxCell id="w6SyLkoHs6t1NlBvXJBp-236" value="IsRemove" style="shape=partialRectangle;connectable=0;fillColor=none;top=0;left=0;bottom=0;right=0;align=left;spacingLeft=6;overflow=hidden;strokeColor=#006658;fontColor=#5C5C5C;" vertex="1" parent="w6SyLkoHs6t1NlBvXJBp-234">
          <mxGeometry x="30" width="150" height="30" as="geometry" />
        </mxCell>
        <mxCell id="w6SyLkoHs6t1NlBvXJBp-237" value="" style="shape=partialRectangle;collapsible=0;dropTarget=0;pointerEvents=0;fillColor=none;top=0;left=0;bottom=0;right=0;points=[[0,0.5],[1,0.5]];portConstraint=eastwest;strokeColor=#006658;fontColor=#5C5C5C;" vertex="1" parent="w6SyLkoHs6t1NlBvXJBp-230">
          <mxGeometry y="90" width="180" height="30" as="geometry" />
        </mxCell>
        <mxCell id="w6SyLkoHs6t1NlBvXJBp-238" value="" style="shape=partialRectangle;connectable=0;fillColor=none;top=0;left=0;bottom=0;right=0;editable=1;overflow=hidden;strokeColor=#006658;fontColor=#5C5C5C;" vertex="1" parent="w6SyLkoHs6t1NlBvXJBp-237">
          <mxGeometry width="30" height="30" as="geometry" />
        </mxCell>
        <mxCell id="w6SyLkoHs6t1NlBvXJBp-239" value="CreateTime" style="shape=partialRectangle;connectable=0;fillColor=none;top=0;left=0;bottom=0;right=0;align=left;spacingLeft=6;overflow=hidden;strokeColor=#006658;fontColor=#5C5C5C;" vertex="1" parent="w6SyLkoHs6t1NlBvXJBp-237">
          <mxGeometry x="30" width="150" height="30" as="geometry" />
        </mxCell>
        <mxCell id="w6SyLkoHs6t1NlBvXJBp-240" value="" style="shape=partialRectangle;collapsible=0;dropTarget=0;pointerEvents=0;fillColor=none;top=0;left=0;bottom=0;right=0;points=[[0,0.5],[1,0.5]];portConstraint=eastwest;strokeColor=#006658;fontColor=#5C5C5C;" vertex="1" parent="w6SyLkoHs6t1NlBvXJBp-230">
          <mxGeometry y="120" width="180" height="30" as="geometry" />
        </mxCell>
        <mxCell id="w6SyLkoHs6t1NlBvXJBp-241" value="" style="shape=partialRectangle;connectable=0;fillColor=none;top=0;left=0;bottom=0;right=0;editable=1;overflow=hidden;strokeColor=#006658;fontColor=#5C5C5C;" vertex="1" parent="w6SyLkoHs6t1NlBvXJBp-240">
          <mxGeometry width="30" height="30" as="geometry" />
        </mxCell>
        <mxCell id="w6SyLkoHs6t1NlBvXJBp-242" value="ModifyTime" style="shape=partialRectangle;connectable=0;fillColor=none;top=0;left=0;bottom=0;right=0;align=left;spacingLeft=6;overflow=hidden;strokeColor=#006658;fontColor=#5C5C5C;" vertex="1" parent="w6SyLkoHs6t1NlBvXJBp-240">
          <mxGeometry x="30" width="150" height="30" as="geometry" />
        </mxCell>
        <mxCell id="w6SyLkoHs6t1NlBvXJBp-243" value="Staff" style="shape=table;startSize=30;container=1;collapsible=1;childLayout=tableLayout;fixedRows=1;rowLines=0;fontStyle=1;align=center;resizeLast=1;fillColor=#21C0A5;strokeColor=#006658;fontColor=#5C5C5C;" vertex="1" collapsed="1" parent="1">
          <mxGeometry x="520" y="730" width="60" height="30" as="geometry">
            <mxRectangle x="520" y="730" width="180" height="160" as="alternateBounds" />
          </mxGeometry>
        </mxCell>
        <mxCell id="w6SyLkoHs6t1NlBvXJBp-244" value="" style="shape=partialRectangle;collapsible=0;dropTarget=0;pointerEvents=0;fillColor=none;top=0;left=0;bottom=1;right=0;points=[[0,0.5],[1,0.5]];portConstraint=eastwest;strokeColor=#006658;fontColor=#5C5C5C;" vertex="1" parent="w6SyLkoHs6t1NlBvXJBp-243">
          <mxGeometry y="30" width="180" height="30" as="geometry" />
        </mxCell>
        <mxCell id="w6SyLkoHs6t1NlBvXJBp-245" value="PK" style="shape=partialRectangle;connectable=0;fillColor=none;top=0;left=0;bottom=0;right=0;fontStyle=1;overflow=hidden;strokeColor=#006658;fontColor=#5C5C5C;" vertex="1" parent="w6SyLkoHs6t1NlBvXJBp-244">
          <mxGeometry width="30" height="30" as="geometry" />
        </mxCell>
        <mxCell id="w6SyLkoHs6t1NlBvXJBp-246" value="ID" style="shape=partialRectangle;connectable=0;fillColor=none;top=0;left=0;bottom=0;right=0;align=left;spacingLeft=6;fontStyle=5;overflow=hidden;strokeColor=#006658;fontColor=#5C5C5C;" vertex="1" parent="w6SyLkoHs6t1NlBvXJBp-244">
          <mxGeometry x="30" width="150" height="30" as="geometry" />
        </mxCell>
        <mxCell id="w6SyLkoHs6t1NlBvXJBp-247" value="" style="shape=partialRectangle;collapsible=0;dropTarget=0;pointerEvents=0;fillColor=none;top=0;left=0;bottom=0;right=0;points=[[0,0.5],[1,0.5]];portConstraint=eastwest;strokeColor=#006658;fontColor=#5C5C5C;" vertex="1" parent="w6SyLkoHs6t1NlBvXJBp-243">
          <mxGeometry y="60" width="180" height="30" as="geometry" />
        </mxCell>
        <mxCell id="w6SyLkoHs6t1NlBvXJBp-248" value="" style="shape=partialRectangle;connectable=0;fillColor=none;top=0;left=0;bottom=0;right=0;editable=1;overflow=hidden;strokeColor=#006658;fontColor=#5C5C5C;" vertex="1" parent="w6SyLkoHs6t1NlBvXJBp-247">
          <mxGeometry width="30" height="30" as="geometry" />
        </mxCell>
        <mxCell id="w6SyLkoHs6t1NlBvXJBp-249" value="IsRemove" style="shape=partialRectangle;connectable=0;fillColor=none;top=0;left=0;bottom=0;right=0;align=left;spacingLeft=6;overflow=hidden;strokeColor=#006658;fontColor=#5C5C5C;" vertex="1" parent="w6SyLkoHs6t1NlBvXJBp-247">
          <mxGeometry x="30" width="150" height="30" as="geometry" />
        </mxCell>
        <mxCell id="w6SyLkoHs6t1NlBvXJBp-250" value="" style="shape=partialRectangle;collapsible=0;dropTarget=0;pointerEvents=0;fillColor=none;top=0;left=0;bottom=0;right=0;points=[[0,0.5],[1,0.5]];portConstraint=eastwest;strokeColor=#006658;fontColor=#5C5C5C;" vertex="1" parent="w6SyLkoHs6t1NlBvXJBp-243">
          <mxGeometry y="90" width="180" height="30" as="geometry" />
        </mxCell>
        <mxCell id="w6SyLkoHs6t1NlBvXJBp-251" value="" style="shape=partialRectangle;connectable=0;fillColor=none;top=0;left=0;bottom=0;right=0;editable=1;overflow=hidden;strokeColor=#006658;fontColor=#5C5C5C;" vertex="1" parent="w6SyLkoHs6t1NlBvXJBp-250">
          <mxGeometry width="30" height="30" as="geometry" />
        </mxCell>
        <mxCell id="w6SyLkoHs6t1NlBvXJBp-252" value="CreateTime" style="shape=partialRectangle;connectable=0;fillColor=none;top=0;left=0;bottom=0;right=0;align=left;spacingLeft=6;overflow=hidden;strokeColor=#006658;fontColor=#5C5C5C;" vertex="1" parent="w6SyLkoHs6t1NlBvXJBp-250">
          <mxGeometry x="30" width="150" height="30" as="geometry" />
        </mxCell>
        <mxCell id="w6SyLkoHs6t1NlBvXJBp-253" value="" style="shape=partialRectangle;collapsible=0;dropTarget=0;pointerEvents=0;fillColor=none;top=0;left=0;bottom=0;right=0;points=[[0,0.5],[1,0.5]];portConstraint=eastwest;strokeColor=#006658;fontColor=#5C5C5C;" vertex="1" parent="w6SyLkoHs6t1NlBvXJBp-243">
          <mxGeometry y="120" width="180" height="30" as="geometry" />
        </mxCell>
        <mxCell id="w6SyLkoHs6t1NlBvXJBp-254" value="" style="shape=partialRectangle;connectable=0;fillColor=none;top=0;left=0;bottom=0;right=0;editable=1;overflow=hidden;strokeColor=#006658;fontColor=#5C5C5C;" vertex="1" parent="w6SyLkoHs6t1NlBvXJBp-253">
          <mxGeometry width="30" height="30" as="geometry" />
        </mxCell>
        <mxCell id="w6SyLkoHs6t1NlBvXJBp-255" value="ModifyTime" style="shape=partialRectangle;connectable=0;fillColor=none;top=0;left=0;bottom=0;right=0;align=left;spacingLeft=6;overflow=hidden;strokeColor=#006658;fontColor=#5C5C5C;" vertex="1" parent="w6SyLkoHs6t1NlBvXJBp-253">
          <mxGeometry x="30" width="150" height="30" as="geometry" />
        </mxCell>
      </root>
    </mxGraphModel>
  </diagram>
</mxfile>
